<svg width="16" height="16" version="1.1" viewBox="0 0 16 16" xmlns="http://www.w3.org/2000/svg">
<path d="m8 0c-1.662 0-3 1.338-3 3v2h-3v2 7c0 1.108 0.89197 2 2 2h8c1.108 0 2.0692-0.89413 2-2v-7-2h-3v-2c0-1.662-1.338-3-3-3zm0 1c1.108 0 2 0.892 2 2v2h-4v-2c0-1.108 0.892-2 2-2zm-2.5 5c0.277 0 0.5 0.223 0.5 0.5s-0.223 0.5-0.5 0.5-0.5-0.223-0.5-0.5 0.223-0.5 0.5-0.5zm5 0c0.277 0 0.5 0.223 0.5 0.5s-0.223 0.5-0.5 0.5-0.5-0.223-0.5-0.5 0.223-0.5 0.5-0.5zm-2.5 2c1.657 0 3.002 1.3432 3.002 3 0 1.657-1.3452 3-3.002 3-0.89469 0-1.6984-0.39257-2.248-1.0137 0.22598-0.176 0.60468-0.13308 1.0703-0.080078 0.22315 0.025 0.47768 0.050547 0.74023 0.060547 0.73351 0.0042 1.5226-0.1289 2.0098-0.3418 0.31492-0.138 0.51654-0.22905 0.64258-0.34375 0.04543-0.0373 0.06945-0.099062 0.09375-0.16406l0.017578-0.042969c0.0204-0.0522 0.04937-0.16456 0.0625-0.22656 0.00585-0.028 0.009204-0.055312-0.009766-0.070312l-0.068359 0.011718c-0.21374 0.1282-0.7478 0.37281-1.248 0.38281-0.6199 0.013-1.8697-0.62341-2-0.69141l-0.013672-0.015625c-0.031245-0.0745-0.21821-0.51833-0.25781-0.61133 0.89931 0.5921 1.6454 0.9197 2.2168 0.9707 0.63534 0.0565 1.1318-0.29115 1.3437-0.43945 0.041351-0.028 0.072968-0.044688 0.085938-0.054688l0.013672-0.023437c-0.035152-0.2232-0.36813-1.303-0.61914-1.5625-0.069592-0.0712-0.12592-0.14103-0.23828-0.20703-0.90854-0.5296-3.065-0.84828-3.166-0.86328l-0.017578 0.0097657-0.0058593 0.013672s-0.0090156 0.44805-0.0097657 0.49805c-0.074025-0.0245-0.30209-0.099453-0.63086-0.18945 0.42897-0.5308 1.0858-1.002 2.2363-1.002v-0.0039062zm0.79297 1.5918c0.0153-4e-4 0.029472-5e-4 0.044922 0 0.50894 0.0183 0.90998 0.44648 0.89258 0.95508-0.0090601 0.2461-0.11331 0.47468-0.29297 0.64258-0.18018 0.1688-0.41465 0.25805-0.66211 0.24805-0.50806-0.019-0.90712-0.44718-0.89062-0.95508 0.0087-0.2464 0.11225-0.47518 0.29297-0.64258 0.16875-0.1586 0.3856-0.24805 0.61523-0.24805zm-0.025391 0.27148c-0.14822 0.0090001-0.28698 0.069175-0.39648 0.17187-0.12479 0.1172-0.19983 0.27547-0.20508 0.44727-0.011715 0.355 0.26641 0.65397 0.62109 0.66797 0.17237 0.0053 0.33507-0.055175 0.46094-0.17188 0.1255-0.1177 0.19983-0.27812 0.20508-0.44922 0.011895-0.3556-0.26819-0.65302-0.62305-0.66602-0.010725-5e-4 -0.0209 0-0.03125 0-0.01035 8.001e-4 -0.020675-7e-4 -0.03125 0zm0.16992 0.32227c0.15764 0 0.28516 0.085906 0.28516 0.19141 0 0.105-0.12752 0.19141-0.28516 0.19141-0.15817 0-0.28711-0.086706-0.28711-0.19141 0-0.1051 0.12894-0.19141 0.28711-0.19141z"/>
</svg>
