<?xml version="1.0" encoding="UTF-8" standalone="no"?>
<!-- Created with Inkscape (http://www.inkscape.org/) -->

<svg
   xmlns:dc="http://purl.org/dc/elements/1.1/"
   xmlns:cc="http://creativecommons.org/ns#"
   xmlns:rdf="http://www.w3.org/1999/02/22-rdf-syntax-ns#"
   xmlns:svg="http://www.w3.org/2000/svg"
   xmlns="http://www.w3.org/2000/svg"
   xmlns:sodipodi="http://sodipodi.sourceforge.net/DTD/sodipodi-0.dtd"
   xmlns:inkscape="http://www.inkscape.org/namespaces/inkscape"
   width="600"
   height="600"
   viewBox="0 0 600 600"
   version="1.1"
   id="svg8"
   inkscape:version="0.92.1 r"
   sodipodi:docname="devel-package.svg"
   inkscape:export-filename="/home/sign/git/suse/software/app/assets/images/default-screenshots/devel-package.png"
   inkscape:export-xdpi="96"
   inkscape:export-ydpi="96">
  <defs
     id="defs2" />
  <sodipodi:namedview
     id="base"
     pagecolor="#ffffff"
     bordercolor="#666666"
     borderopacity="1.0"
     inkscape:pageopacity="0"
     inkscape:pageshadow="2"
     inkscape:zoom="0.98994949"
     inkscape:cx="319.24895"
     inkscape:cy="242.58612"
     inkscape:document-units="px"
     inkscape:current-layer="layer1"
     showgrid="false"
     units="px"
     inkscape:window-width="1280"
     inkscape:window-height="995"
     inkscape:window-x="1920"
     inkscape:window-y="0"
     inkscape:window-maximized="1" />
  <metadata
     id="metadata5">
    <rdf:RDF>
      <cc:Work
         rdf:about="">
        <dc:format>image/svg+xml</dc:format>
        <dc:type
           rdf:resource="http://purl.org/dc/dcmitype/StillImage" />
        <dc:title />
      </cc:Work>
    </rdf:RDF>
  </metadata>
  <g
     inkscape:label="Layer 1"
     inkscape:groupmode="layer"
     id="layer1"
     transform="translate(0,258.875)">
    <rect
       style="opacity:1;fill:#35b9ab;fill-opacity:1;stroke:none;stroke-width:3;stroke-linecap:round;stroke-linejoin:round;stroke-miterlimit:4;stroke-dasharray:none;stroke-dashoffset:0;stroke-opacity:1"
       id="rect4600"
       width="600"
       height="600"
       x="0"
       y="-258.875" />
    <g
       id="g4658"
       transform="translate(4.5155029,5.3532257)">
      <rect
         y="-65.243477"
         x="144.97177"
         height="202.0305"
         width="301.02545"
         id="rect4639"
         style="opacity:1;fill:none;fill-opacity:1;stroke:#ffffff;stroke-width:6;stroke-linecap:round;stroke-linejoin:round;stroke-miterlimit:4;stroke-dasharray:none;stroke-dashoffset:0;stroke-opacity:1" />
      <path
         inkscape:connector-curvature="0"
         id="path4641"
         d="m 144.28571,-33.16071 h 300"
         style="fill:none;fill-rule:evenodd;stroke:#ffffff;stroke-width:6;stroke-linecap:butt;stroke-linejoin:miter;stroke-miterlimit:4;stroke-dasharray:none;stroke-opacity:1" />
      <circle
         r="7.0710683"
         cy="-48.79388"
         cx="385.3732"
         id="path4643"
         style="opacity:1;fill:#ffffff;fill-opacity:1;stroke:none;stroke-width:6;stroke-linecap:round;stroke-linejoin:round;stroke-miterlimit:4;stroke-dasharray:none;stroke-dashoffset:0;stroke-opacity:1" />
      <circle
         style="opacity:1;fill:#ffffff;fill-opacity:1;stroke:none;stroke-width:6;stroke-linecap:round;stroke-linejoin:round;stroke-miterlimit:4;stroke-dasharray:none;stroke-dashoffset:0;stroke-opacity:1"
         id="circle4645"
         cx="406.83893"
         cy="-48.79388"
         r="7.0710683" />
      <circle
         r="7.0710683"
         cy="-48.79388"
         cx="428.30469"
         id="circle4647"
         style="opacity:1;fill:#ffffff;fill-opacity:1;stroke:none;stroke-width:6;stroke-linecap:round;stroke-linejoin:round;stroke-miterlimit:4;stroke-dasharray:none;stroke-dashoffset:0;stroke-opacity:1" />
    </g>
    <g
       aria-label="{ ; }"
       style="font-style:normal;font-weight:normal;font-size:9px;line-height:30px;font-family:sans-serif;letter-spacing:0px;word-spacing:0px;fill:#ffffff;fill-opacity:1;stroke:none;stroke-width:1px;stroke-linecap:butt;stroke-linejoin:miter;stroke-opacity:1"
       id="text4651">
      <path
         d="m 230.83401,78.565006 h 4.928 v -4.992 h -2.624 c -5.312,0 -6.528,-0.896 -6.528,-4.48 0,-3.456 0.32,-6.528 0.32,-10.432 0,-4.864 -1.856,-6.72 -6.4,-7.488 v -0.256 c 4.544,-0.768 6.4,-2.624 6.4,-7.488 0,-3.776 -0.32,-7.04 -0.32,-10.432 0,-3.584 1.216,-4.48 6.528,-4.48 h 2.624 v -4.992 h -4.928 c -8.192,0 -11.904,2.176 -11.904,9.088 0,4.48 0.64,6.976 0.64,10.944 0,2.24 -1.856,4.608 -8.768,4.736 v 5.504 c 6.912,0.128 8.768,2.496 8.768,4.736 0,4.032 -0.64,6.4 -0.64,10.944 0,6.912 3.712,9.088 11.904,9.088 z"
         style="font-style:normal;font-variant:normal;font-weight:bold;font-stretch:normal;font-size:64px;font-family:'Source Code Pro';-inkscape-font-specification:'Source Code Pro Bold';fill:#ffffff"
         id="path5306" />
      <path
         d="m 299.96801,48.933006 c 4.416,0 7.424,-3.264 7.424,-7.488 0,-4.224 -3.008,-7.552 -7.424,-7.552 -4.416,0 -7.424,3.328 -7.424,7.552 0,4.224 3.008,7.488 7.424,7.488 z m -5.184,33.792 c 8.832,-2.688 13.44,-8.512 13.44,-16.64 0,-6.912 -2.688,-11.008 -7.936,-11.008 -3.968,0 -7.168,2.624 -7.168,6.592 0,4.224 3.328,6.528 6.912,6.528 0.256,0 0.448,0 0.704,-0.064 0.128,3.904 -2.624,7.104 -8.32,9.088 z"
         style="font-style:normal;font-variant:normal;font-weight:bold;font-stretch:normal;font-size:64px;font-family:'Source Code Pro';-inkscape-font-specification:'Source Code Pro Bold';fill:#ffffff"
         id="path5308" />
      <path
         d="m 364.23801,78.565006 h 4.928 c 8.192,0 11.904,-2.176 11.904,-9.088 0,-4.544 -0.704,-6.912 -0.704,-10.944 0,-2.24 1.856,-4.608 8.832,-4.736 v -5.504 c -6.976,-0.128 -8.832,-2.496 -8.832,-4.736 0,-3.968 0.704,-6.464 0.704,-10.944 0,-6.912 -3.712,-9.088 -11.904,-9.088 h -4.928 v 4.992 h 2.624 c 5.248,0 6.464,0.896 6.464,4.48 0,3.392 -0.256,6.656 -0.256,10.432 0,4.864 1.792,6.72 6.4,7.488 v 0.256 c -4.608,0.768 -6.4,2.624 -6.4,7.488 0,3.904 0.256,6.976 0.256,10.432 0,3.584 -1.216,4.48 -6.464,4.48 h -2.624 z"
         style="font-style:normal;font-variant:normal;font-weight:bold;font-stretch:normal;font-size:64px;font-family:'Source Code Pro';-inkscape-font-specification:'Source Code Pro Bold';fill:#ffffff"
         id="path5310" />
    </g>
  </g>
</svg>
