<?xml version="1.0" encoding="UTF-8" standalone="no"?>
<!-- Created with Inkscape (http://www.inkscape.org/) -->

<svg
   xmlns:dc="http://purl.org/dc/elements/1.1/"
   xmlns:cc="http://creativecommons.org/ns#"
   xmlns:rdf="http://www.w3.org/1999/02/22-rdf-syntax-ns#"
   xmlns:svg="http://www.w3.org/2000/svg"
   xmlns="http://www.w3.org/2000/svg"
   xmlns:sodipodi="http://sodipodi.sourceforge.net/DTD/sodipodi-0.dtd"
   xmlns:inkscape="http://www.inkscape.org/namespaces/inkscape"
   width="600"
   height="600"
   viewBox="0 0 600 600"
   version="1.1"
   id="svg8"
   inkscape:version="0.92.1 r"
   sodipodi:docname="kernel-package.svg"
   inkscape:export-filename="/home/sign/git/suse/software/app/assets/images/default-screenshots/kernel-package.png"
   inkscape:export-xdpi="96"
   inkscape:export-ydpi="96">
  <defs
     id="defs2" />
  <sodipodi:namedview
     id="base"
     pagecolor="#ffffff"
     bordercolor="#666666"
     borderopacity="1.0"
     inkscape:pageopacity="0"
     inkscape:pageshadow="2"
     inkscape:zoom="0.7"
     inkscape:cx="270.74058"
     inkscape:cy="188.07916"
     inkscape:document-units="px"
     inkscape:current-layer="layer1"
     showgrid="false"
     units="px"
     inkscape:window-width="1280"
     inkscape:window-height="995"
     inkscape:window-x="1920"
     inkscape:window-y="0"
     inkscape:window-maximized="1"
     inkscape:object-nodes="false" />
  <metadata
     id="metadata5">
    <rdf:RDF>
      <cc:Work
         rdf:about="">
        <dc:format>image/svg+xml</dc:format>
        <dc:type
           rdf:resource="http://purl.org/dc/dcmitype/StillImage" />
        <dc:title></dc:title>
      </cc:Work>
    </rdf:RDF>
  </metadata>
  <g
     inkscape:label="Layer 1"
     inkscape:groupmode="layer"
     id="layer1"
     transform="translate(0,258.875)">
    <rect
       style="opacity:1;fill:#35b9ab;fill-opacity:1;stroke:none;stroke-width:3;stroke-linecap:round;stroke-linejoin:round;stroke-miterlimit:4;stroke-dasharray:none;stroke-dashoffset:0;stroke-opacity:1"
       id="rect4600"
       width="600"
       height="600"
       x="0"
       y="-258.875" />
    <path
       style="fill:#ffffff;stroke-width:1"
       inkscape:connector-curvature="0"
       d="m 297.27643,-4.8926117 c 0,0.5959672 -0.59597,0.5959672 -0.59597,0.5959672 h -0.59596 c -0.59597,0 -0.59597,-0.5959672 -1.19194,-1.1919345 0,0 -0.59596,-0.5959673 -0.59596,-1.1919346 0,-0.5959673 0,-0.5959673 0.59596,-0.5959673 l 1.19194,0.5959673 c 0.59596,0.5959673 1.19193,1.1919346 1.19193,1.7879019 m -10.72741,-5.9596733 c 0,-2.979836 -1.19193,-4.767738 -2.97984,-4.767738 0,0 0,0.595967 -0.59596,0.595967 v 1.191935 h 1.7879 c 0,1.191934 0.59597,1.787902 0.59597,2.979836 h 1.19193 m 20.85886,-2.979836 c 1.19193,0 1.7879,1.191934 2.38387,2.979836 h 1.19193 c -0.59597,-0.595967 -0.59597,-1.191934 -0.59597,-1.787902 0,-0.595967 0,-1.191934 -0.59596,-1.787901 -0.59597,-0.595968 -1.19194,-1.191935 -1.78791,-1.191935 0,0 -0.59596,0.595967 -1.19193,0.595967 0,0.595968 0.59597,0.595968 0.59597,1.191935 m -17.87902,9.5354765 c -0.59597,0 -0.59597,0 -0.59597,-0.5959672 0,-0.5959673 0,-1.1919346 0.59597,-1.7879019 1.19193,0 1.7879,-0.5959673 1.7879,-0.5959673 0.59597,0 0.59597,0.5959673 0.59597,0.5959673 0,0.5959673 -0.59597,1.1919346 -1.78791,2.3838691 h -0.59596 m -6.55564,-0.5959672 c -2.38387,-1.1919346 -2.97984,-2.9798365 -2.97984,-5.9596733 0,-1.787902 0,-2.979836 1.19194,-4.171771 0.59596,-1.191934 1.7879,-1.787902 2.97983,-1.787902 1.19194,0 1.7879,0.595968 2.97984,1.787902 0.59597,1.787902 1.19193,3.575804 1.19193,5.3637059 v 0.5959673 0.5959673 h 0.59597 v -0.5959673 c 0.59597,0 0.59597,-1.1919342 0.59597,-3.5758042 0,-1.787901 0,-3.575803 -1.19194,-5.363705 -1.19193,-1.787902 -2.38387,-2.979837 -4.76774,-2.979837 -1.7879,0 -3.5758,1.191935 -4.17177,2.979837 -1.19193,2.383869 -1.43032,4.171771 -1.43032,7.151607 0,2.3838695 0.83436,4.7677387 3.21823,7.1516078 0.59596,-0.5959673 1.19193,-0.5959673 1.7879,-1.1919345 m 74.49591,84.0313877 c 0.59597,0 0.59597,-0.238387 0.59597,-0.774757 0,-1.311128 -0.59597,-2.860643 -2.38387,-4.588948 -1.78791,-1.787902 -4.76774,-2.92024 -8.34355,-3.397014 -0.59596,-0.0596 -1.19193,-0.0596 -1.19193,-0.0596 -0.59597,-0.119193 -0.59597,-0.119193 -1.19193,-0.119193 -0.59597,-0.0596 -1.78791,-0.17879 -2.38387,-0.297984 1.7879,-5.542496 2.38387,-10.429427 2.38387,-14.720392 0,-5.959673 -1.19194,-10.131444 -3.57581,-13.707248 -2.38387,-3.575803 -4.76774,-5.363705 -7.74757,-5.959672 -0.59597,0.595967 -0.59597,0.595967 -0.59597,1.191934 2.97984,1.191935 5.95967,3.575804 7.74757,7.151608 1.78791,4.171771 2.38387,7.747574 2.38387,11.919345 0,3.337417 -0.59596,8.283946 -2.97983,14.601199 -2.38387,0.953548 -4.76774,3.158627 -6.55564,6.615237 0,0.53637 0,0.834354 0.59596,0.834354 0,0 0.59597,-0.53637 1.19194,-1.549515 1.19193,-1.013144 1.7879,-2.026289 2.97984,-3.039433 1.7879,-1.013144 2.97983,-1.549515 4.76773,-1.549515 2.97984,0 5.95968,0.417177 7.74758,1.251531 2.38387,0.774758 3.5758,1.609112 4.17177,2.56266 0.59597,0.893951 1.19193,1.728305 1.7879,2.503062 0,0.774758 0.59597,1.132338 0.59597,1.132338 M 302.64014,-7.2764809 c -0.59597,-0.5959673 -0.59597,-1.7879019 -0.59597,-2.9798361 0,-2.38387 0,-3.575804 1.19194,-5.363706 1.19193,-1.191935 2.38386,-1.787902 3.5758,-1.787902 1.7879,0 2.97984,1.191935 4.17177,2.383869 0.59597,1.787902 1.19193,2.979837 1.19193,4.767739 0,2.9798361 -1.19193,4.767738 -3.5758,5.3637053 0,0 0.59597,0.5959673 1.19194,0.5959673 1.19193,0 1.7879,0.5959672 2.97983,1.1919345 0.59597,-3.5758037 1.19194,-5.9596729 1.19194,-8.9395091 0,-3.575804 -0.59597,-5.959673 -1.78791,-7.747575 -1.7879,-1.787902 -3.5758,-2.383869 -5.95967,-2.383869 -1.7879,0 -3.5758,0.595967 -5.3637,1.787902 -1.19194,1.787902 -1.78791,2.979836 -1.78791,4.767738 0,2.979836 0.59597,5.363706 1.78791,7.7475748 0.59596,0 1.19193,0.5959673 1.7879,0.5959673 m 7.15161,9.5354766 c -7.74758,5.3637057 -13.70725,7.7475753 -18.47499,7.7475753 -4.17177,0 -8.34354,-1.7879024 -11.91935,-4.7677388 0.59597,1.1919346 1.19194,2.3838692 1.78791,2.9798364 l 3.5758,3.5758034 c 2.38387,2.38387 5.3637,3.575804 8.34354,3.575804 4.17177,0 8.93951,-2.383869 14.89918,-6.5556401 l 5.36371,-3.5758037 c 1.19193,-1.1919346 2.38387,-2.3838692 2.38387,-4.171771 0,-0.59596733 0,-1.19193462 -0.59597,-1.19193462 -0.59597,-1.19193458 -3.5758,-2.97983648 -9.53548,-4.76773828 -5.3637,-2.3838692 -9.53547,-3.5758038 -11.91934,-3.5758038 -1.7879,0 -4.76774,1.1919346 -8.93951,3.5758038 -3.5758,2.3838691 -5.95967,4.76773828 -5.95967,7.1516074 0,0 0.59596,0.5959673 1.19193,1.7879019 3.5758,2.9798365 7.15161,4.7677383 10.72741,4.7677383 4.76774,0 10.72741,-2.3838691 18.47499,-8.34354203 V 1.6630285 c 0.59597,0 0.59597,0.5959672 0.59597,0.5959672 M 323.49899,122.64439 c 2.38387,4.48167 6.55564,6.73443 11.32338,6.73443 1.19194,0 2.38387,-0.17879 3.57581,-0.53637 1.19193,-0.23839 2.38386,-0.65557 2.97983,-1.13234 0.59597,-0.41718 1.19194,-0.83435 1.7879,-1.31113 1.19194,-0.41717 1.19194,-0.71516 1.78791,-1.01314 l 10.13144,-8.76072 c 2.38387,-1.90114 4.76774,-3.56389 7.74757,-5.00613 2.38387,-1.43032 4.76774,-2.38387 5.95968,-2.92024 1.7879,-0.47677 2.97983,-1.19193 4.17177,-2.14548 0.59597,-0.89395 1.19193,-2.02629 1.19193,-3.45661 0,-1.7283 -1.19193,-3.03943 -2.38387,-3.99298 -1.19193,-0.953547 -2.38387,-1.609111 -3.5758,-2.026288 -1.19193,-0.417178 -2.38387,-1.370725 -4.17177,-2.979837 -1.19194,-1.549515 -2.38387,-3.694997 -2.97984,-6.496043 l -0.59596,-3.456611 c -0.59597,-1.609111 -0.59597,-2.801046 -1.19194,-3.45661 0,-0.17879 0,-0.238387 -0.59597,-0.238387 -0.59596,0 -1.7879,0.536371 -2.38387,1.549515 -1.19193,1.013145 -2.38387,2.145482 -3.5758,3.337417 -0.59597,1.191935 -2.38387,2.264676 -3.5758,3.27782 -1.78791,1.013144 -3.57581,1.549515 -4.76774,1.549515 -4.76774,0 -7.15161,-1.311128 -8.93951,-3.873787 -1.19194,-1.907096 -1.7879,-4.112175 -2.38387,-6.615237 -1.19193,-1.013145 -1.7879,-1.549515 -2.97984,-1.549515 -2.97983,0 -4.17177,3.09903 -4.17177,9.356686 v 1.966692 6.913221 5.304109 2.56266 1.7879 c 0,0.53637 -0.59597,1.72831 -0.59597,3.5758 -0.59596,1.8475 -0.59596,3.94531 -0.59596,6.31726 l -1.19194,6.61523 v 0.10132 m -86.41525,-3.15267 c 5.54249,0.81052 11.91934,2.54478 19.13055,5.19088 7.2112,2.62225 11.62136,3.99298 13.23047,3.99298 4.17177,0 7.62838,-1.8475 10.48902,-5.41734 0.59597,-1.15618 0.59597,-2.51499 0.59597,-4.07642 0,-5.63189 -3.39701,-12.7537 -10.19104,-21.395226 l -4.05258,-5.423303 c -0.83435,-1.132338 -1.8475,-2.860643 -3.15862,-5.184915 -1.25153,-2.324273 -2.38387,-4.112174 -3.27782,-5.363706 -0.77476,-1.370725 -2.02629,-2.741449 -3.6354,-4.112174 -1.54952,-1.370725 -3.33742,-2.264676 -5.30411,-2.74145 -2.50307,0.476774 -4.23137,1.311128 -5.06572,2.443466 -0.83436,1.132338 -1.31113,2.383869 -1.43033,3.694998 -0.17879,1.251531 -0.53637,2.085885 -1.13233,2.503062 -0.59597,0.357581 -1.60912,0.655564 -2.97984,0.953548 -0.29798,0 -0.83435,0 -1.60911,0.0596 h -1.60911 c -3.15863,0 -5.30411,0.35758 -6.43645,0.953547 -1.48992,1.728305 -2.26468,3.694997 -2.26468,5.780883 0,0.953548 0.23839,2.562659 0.71516,4.827335 0.47678,2.205079 0.71517,3.992975 0.71517,5.244505 0,2.44347 -0.71517,4.88694 -2.20508,7.3304 -1.48992,2.56266 -2.26468,4.46976 -2.26468,5.82856 0.59597,2.31235 4.52935,3.93935 11.74056,4.89289 m 19.84571,-54.17342 c 0,-4.112175 1.07274,-8.641526 3.27782,-14.005232 2.14548,-5.363705 4.29096,-8.939509 6.37685,-11.323378 -0.1192,-0.595967 -0.41718,-0.595967 -0.89395,-0.595967 l -0.59597,-0.595968 c -1.72831,1.787902 -3.81419,5.959673 -6.31725,11.919346 -2.50307,5.363706 -3.8142,10.310234 -3.8142,13.945635 0,2.681852 0.65557,5.006125 1.8475,7.032414 1.31113,1.966692 4.46976,4.827335 9.47588,8.462735 l 6.31726,4.112174 c 6.73443,5.84048 10.31023,9.893057 10.31023,12.276927 0,1.251531 -0.59597,2.503062 -2.38387,3.873784 -1.19193,1.43032 -2.80104,2.14548 -4.17177,2.14548 -0.11919,0 -0.17879,0.1192 -0.17879,0.41718 0,0.0596 0.59597,1.25153 1.8475,3.5758 2.50306,3.39702 7.86677,5.06573 15.01837,5.06573 13.11128,0 23.24273,-5.36371 30.9903,-16.091119 0,-2.979836 0,-4.827335 -0.59596,-5.602092 V 87.69091 c 0,-3.873788 0.59596,-6.794027 1.7879,-8.701123 1.19193,-1.907095 2.38387,-2.801046 4.17177,-2.801046 1.19193,0 2.38387,0.417177 3.5758,1.311128 0.59597,-4.588948 0.59597,-8.581929 0.59597,-12.157733 0,-5.423302 0,-9.893057 -1.19193,-14.064828 -0.59597,-3.575803 -1.78791,-6.55564 -2.97984,-8.939509 -1.19194,-1.787902 -2.38387,-3.575804 -3.5758,-5.363706 -1.19194,-1.787901 -1.78791,-3.575803 -2.97984,-5.363705 -0.59597,-2.383869 -1.19194,-4.171771 -1.19194,-7.151608 -1.7879,-2.979836 -2.97983,-5.959673 -4.76773,-8.939509 -1.19194,-2.979837 -2.38387,-5.959673 -3.57581,-8.3435421 l -5.3637,4.1717711 c -5.95968,4.171771 -10.72741,5.959673 -14.89919,5.959673 -3.5758,0 -6.55564,-0.595967 -8.34354,-2.979837 l -3.5758,-2.979836 c 0,1.787902 -0.59597,4.171771 -1.7879,6.55564 l -3.7546,7.151608 c -1.66871,4.171771 -2.56266,6.55564 -2.74145,8.343542 -0.23838,1.191934 -0.41717,2.383869 -0.53637,2.383869 l -4.46975,8.939509 c -4.82734,8.93951 -7.2708,17.223455 -7.2708,24.077079 0,1.370724 0.11919,2.801046 0.35758,4.231367 -2.68186,-1.847498 -3.99298,-4.410158 -3.99298,-7.747574 m 42.67125,56.3785 c -7.74757,0 -13.70724,1.0489 -17.87901,3.12883 v -0.17879 c -2.97984,3.5758 -6.31726,5.4233 -10.9658,5.4233 -2.92024,0 -7.50919,-1.13234 -13.70725,-3.39701 -6.25766,-2.14548 -11.80015,-3.79035 -16.62749,-4.87501 -0.47677,-0.13708 -1.54951,-0.3397 -3.27782,-0.61385 -1.66871,-0.26818 -3.21822,-0.54233 -4.58895,-0.81647 -1.25153,-0.26819 -2.68185,-0.67345 -4.23136,-1.22174 -1.48992,-0.47081 -2.68186,-1.08466 -3.57581,-1.82962 -0.82243,-0.75092 -1.22769,-1.59719 -1.22769,-2.54478 0,-0.95355 0.20263,-1.97265 0.60789,-3.05731 0.38142,-0.65556 0.79859,-1.31113 1.21577,-1.9071 0.41718,-0.65556 0.77476,-1.25153 1.01314,-1.84749 0.35759,-0.53637 0.59597,-1.07274 0.83436,-1.66871 0.23839,-0.53637 0.47677,-1.07274 0.59597,-1.72831 0.11919,-0.59596 0.23838,-1.19193 0.23838,-1.7879 0,-0.59597 -0.23838,-2.38387 -0.71516,-5.542492 -0.47677,-3.09903 -0.71516,-5.065722 -0.71516,-5.900076 0,-2.622256 0.59597,-4.708142 1.9071,-6.19806 1.31113,-1.489918 2.56266,-2.264676 3.87378,-2.264676 h 6.85363 c 0.53637,0 1.37072,-0.297983 2.62225,-1.013144 0.41718,-0.953548 0.77476,-1.728305 1.01315,-2.443466 0.29798,-0.715161 0.41718,-1.251531 0.53637,-1.489918 0.11919,-0.357581 0.23839,-0.715161 0.35758,-1.013145 0.23839,-0.417177 0.53637,-0.89395 0.95355,-1.370724 -0.47678,-0.595968 -0.71516,-1.370725 -0.71516,-2.324273 0,-0.655564 0,-1.251531 0.11919,-1.609111 0,-2.145483 1.01314,-5.184916 3.15863,-9.177897 l 2.08588,-3.754594 c 1.72831,-3.218223 3.03944,-5.602092 3.99298,-7.985961 1.01315,-2.383869 2.08589,-5.959673 3.27782,-10.727412 0.95355,-4.171771 3.21823,-8.343542 6.79403,-12.515313 l 4.46975,-5.363705 c 3.09903,-3.575804 5.12532,-6.55564 6.25766,-8.93951 1.13234,-2.383869 1.72831,-5.3637052 1.72831,-7.7475744 0,-1.1919345 -0.29799,-4.76773827 -0.95355,-10.7274112 -0.59597,-5.9596724 -0.89395,-11.9193454 -0.89395,-17.2830514 0,-4.171771 0.35758,-7.151607 1.13234,-10.131444 0.77475,-2.979836 2.14548,-5.959673 4.17177,-8.343542 1.7879,-2.383869 4.17177,-4.767738 7.74757,-5.959673 3.57581,-1.191934 7.74758,-1.787902 12.51531,-1.787902 1.78791,0 3.57581,0 5.36371,0.595968 1.7879,0 4.17177,0.595967 7.15161,1.787901 2.38387,1.191935 4.76774,2.38387 6.55564,4.171771 2.38387,1.787902 4.17177,4.767739 5.95967,7.747575 1.19194,3.575804 2.38387,7.151608 2.97984,11.919346 0.59596,2.979836 0.59596,5.959673 1.19193,10.131444 0,3.5758037 0.59597,5.9596728 0.59597,7.7475747 0.59597,1.7879019 0.59597,4.17177105 1.19193,7.1516075 0.59597,2.3838692 1.19194,4.7677383 2.38387,6.5556402 1.19194,2.3838696 2.38387,4.7677386 4.17177,7.1516076 1.78791,2.979836 4.17178,5.959673 6.55564,9.535477 5.36371,5.959672 9.53548,12.515313 11.91935,19.070953 2.97984,5.959673 4.76774,13.707247 4.76774,21.991193 0,4.112174 -0.59597,8.105155 -1.7879,11.978942 1.19193,0 1.7879,0.476774 2.38387,1.311128 0.59596,0.834355 1.19193,2.622256 1.7879,5.423303 l 0.59596,4.410158 c 0.59597,1.311128 1.19194,2.562659 2.97984,3.6354 1.19194,1.072741 2.38387,1.966692 4.17177,2.681853 1.19194,0.595967 2.97984,1.430321 4.17177,2.503063 1.19194,1.191934 1.78791,2.44346 1.78791,3.75459 0,2.02629 -0.59597,3.51621 -1.78791,4.58895 -1.19193,1.19193 -2.38387,2.02629 -4.17177,2.56266 -1.19193,0.59597 -3.5758,1.7879 -7.15161,3.46853 -2.97983,1.76406 -5.95967,3.90358 -8.9395,6.43644 l -5.95968,5.07169 c -2.38387,2.32427 -4.76774,3.99298 -6.55564,5.00612 -1.7879,1.07274 -4.17177,1.60911 -6.55564,1.60911 l -4.17177,-0.47677 c -4.76774,-1.25153 -7.74757,-3.6354 -9.53548,-7.2708 -9.53547,-1.15618 -17.28305,-1.72831 -22.05079,-1.72831"
       id="path5657" />
  </g>
  <style
     id="style5445">.st0{fill:#8181D3;}</style>
</svg>
