<?xml version="1.0" encoding="UTF-8" standalone="no"?>
<!-- Created with Inkscape (http://www.inkscape.org/) -->

<svg
   xmlns:dc="http://purl.org/dc/elements/1.1/"
   xmlns:cc="http://creativecommons.org/ns#"
   xmlns:rdf="http://www.w3.org/1999/02/22-rdf-syntax-ns#"
   xmlns:svg="http://www.w3.org/2000/svg"
   xmlns="http://www.w3.org/2000/svg"
   xmlns:sodipodi="http://sodipodi.sourceforge.net/DTD/sodipodi-0.dtd"
   xmlns:inkscape="http://www.inkscape.org/namespaces/inkscape"
   width="600"
   height="600"
   viewBox="0 0 600 600"
   version="1.1"
   id="svg8"
   inkscape:version="0.92.1 r"
   sodipodi:docname="openstack-package.svg"
   inkscape:export-filename="/home/sign/git/suse/software/app/assets/images/default-screenshots/openstack-package.png"
   inkscape:export-xdpi="96"
   inkscape:export-ydpi="96">
  <defs
     id="defs2" />
  <sodipodi:namedview
     id="base"
     pagecolor="#ffffff"
     bordercolor="#666666"
     borderopacity="1.0"
     inkscape:pageopacity="0"
     inkscape:pageshadow="2"
     inkscape:zoom="0.7"
     inkscape:cx="270.74058"
     inkscape:cy="188.07916"
     inkscape:document-units="px"
     inkscape:current-layer="layer1"
     showgrid="false"
     units="px"
     inkscape:window-width="1280"
     inkscape:window-height="995"
     inkscape:window-x="1920"
     inkscape:window-y="0"
     inkscape:window-maximized="1"
     inkscape:object-nodes="false" />
  <metadata
     id="metadata5">
    <rdf:RDF>
      <cc:Work
         rdf:about="">
        <dc:format>image/svg+xml</dc:format>
        <dc:type
           rdf:resource="http://purl.org/dc/dcmitype/StillImage" />
        <dc:title></dc:title>
      </cc:Work>
    </rdf:RDF>
  </metadata>
  <g
     inkscape:label="Layer 1"
     inkscape:groupmode="layer"
     id="layer1"
     transform="translate(0,258.875)">
    <rect
       style="opacity:1;fill:#35b9ab;fill-opacity:1;stroke:none;stroke-width:3;stroke-linecap:round;stroke-linejoin:round;stroke-miterlimit:4;stroke-dasharray:none;stroke-dashoffset:0;stroke-opacity:1"
       id="rect4600"
       width="600"
       height="600"
       x="0"
       y="-258.875" />
    <path
       style="fill:#ffffff;fill-opacity:1;fill-rule:nonzero;stroke:none;stroke-width:0.13333333"
       d="m 212.45904,-48.875 c -9.39877,0 -17.08758,7.690477 -17.08758,17.089037 V 8.48126 h 41.53329 V 1.900901 c 0,-5.103985 4.13812,-9.242611 9.24262,-9.242611 h 82.36482 c 5.10499,-7e-6 9.24262,4.138626 9.24262,9.242611 V 8.48126 h 41.53329 v -40.267223 c 0,-9.398567 -7.68902,-17.089037 -17.08758,-17.089037 z m -17.08758,69.231892 v 41.534749 h 41.53329 V 20.356892 Z m 142.38335,0 v 41.534749 h 41.5333 V 20.356892 Z M 195.37146,73.76874 v 40.26722 c 0,9.39838 7.68881,17.08904 17.08758,17.08904 h 149.74149 c 9.39855,0 17.08758,-7.69066 17.08758,-17.08904 V 73.76874 h -41.5333 v 6.57889 c 0,5.10489 -4.13763,9.24262 -9.24261,9.24262 h -82.36336 c -5.10449,0 -9.24408,-4.13773 -9.24408,-9.24262 v -6.57889 z m 200.07002,38.98506 c -5.06507,0 -9.18413,4.12055 -9.18413,9.18561 0,5.06506 4.11907,9.18559 9.18413,9.18559 5.06507,0 9.18705,-4.12053 9.18705,-9.18559 0,-5.06506 -4.12198,-9.18561 -9.18705,-9.18561 z m 0,2.2573 c 3.82051,0 6.92831,3.10771 6.92831,6.92831 0,3.82024 -3.1078,6.92829 -6.92831,6.92829 -3.8205,0 -6.92685,-3.10805 -6.92685,-6.92829 0,-3.8206 3.10634,-6.92831 6.92685,-6.92831 z m -3.13593,2.26752 v 8.99993 h 1.86255 v -2.95612 h 1.16958 l 1.65935,2.95612 h 2.13448 l -1.91665,-3.34355 c 0.99106,-0.43625 1.6725,-1.29859 1.6725,-2.66079 v -0.0512 c 0,-0.88815 -0.26972,-1.59447 -0.75876,-2.08332 -0.56589,-0.56608 -1.40101,-0.8611 -2.44296,-0.8611 z m 1.86255,1.68274 h 1.33771 c 0.95213,0 1.50438,0.45169 1.50438,1.35232 v 0.0132 c 0,0.80931 -0.51424,1.3494 -1.46637,1.3494 h -1.37572 z"
       id="path5745"
       inkscape:connector-curvature="0" />
  </g>
  <style
     id="style5445">.st0{fill:#8181D3;}</style>
</svg>
