<?xml version="1.0" encoding="UTF-8" standalone="no"?>
<!-- Created with Inkscape (http://www.inkscape.org/) -->

<svg
   xmlns:dc="http://purl.org/dc/elements/1.1/"
   xmlns:cc="http://creativecommons.org/ns#"
   xmlns:rdf="http://www.w3.org/1999/02/22-rdf-syntax-ns#"
   xmlns:svg="http://www.w3.org/2000/svg"
   xmlns="http://www.w3.org/2000/svg"
   xmlns:sodipodi="http://sodipodi.sourceforge.net/DTD/sodipodi-0.dtd"
   xmlns:inkscape="http://www.inkscape.org/namespaces/inkscape"
   width="600"
   height="600"
   viewBox="0 0 600 600"
   version="1.1"
   id="svg8"
   inkscape:version="0.92.1 r"
   sodipodi:docname="package.svg"
   inkscape:export-filename="/home/sign/git/suse/software/app/assets/images/default-screenshots/package.png"
   inkscape:export-xdpi="96"
   inkscape:export-ydpi="96">
  <defs
     id="defs2" />
  <sodipodi:namedview
     id="base"
     pagecolor="#ffffff"
     bordercolor="#666666"
     borderopacity="1.0"
     inkscape:pageopacity="0"
     inkscape:pageshadow="2"
     inkscape:zoom="0.49497475"
     inkscape:cx="398.49026"
     inkscape:cy="131.32653"
     inkscape:document-units="px"
     inkscape:current-layer="layer1"
     showgrid="false"
     units="px"
     inkscape:window-width="1280"
     inkscape:window-height="995"
     inkscape:window-x="1920"
     inkscape:window-y="0"
     inkscape:window-maximized="1" />
  <metadata
     id="metadata5">
    <rdf:RDF>
      <cc:Work
         rdf:about="">
        <dc:format>image/svg+xml</dc:format>
        <dc:type
           rdf:resource="http://purl.org/dc/dcmitype/StillImage" />
        <dc:title></dc:title>
      </cc:Work>
    </rdf:RDF>
  </metadata>
  <g
     inkscape:label="Layer 1"
     inkscape:groupmode="layer"
     id="layer1"
     transform="translate(0,258.875)">
    <rect
       style="opacity:1;fill:#35b9ab;fill-opacity:1;stroke:none;stroke-width:3;stroke-linecap:round;stroke-linejoin:round;stroke-miterlimit:4;stroke-dasharray:none;stroke-dashoffset:0;stroke-opacity:1"
       id="rect4600"
       width="600"
       height="600"
       x="0"
       y="-258.875" />
    <path
       style="clip-rule:evenodd;fill:#ffffff;fill-opacity:1;fill-rule:evenodd"
       d="M 289.85156 199.85156 C 267.3197 199.95951 238.45428 203.61912 203.08203 225.36914 L 201.6875 226.23633 C 179.4977 240.07778 164.17802 257.14745 156.16992 276.97656 C 153.65832 283.21678 150.28081 297.29629 153.62891 310.54492 C 155.07061 316.33615 157.75957 322.15627 161.38477 327.36523 C 169.57877 339.13536 183.32841 346.94477 198.13281 348.26367 C 219.03701 350.13328 234.86619 340.74472 240.49609 323.16406 C 244.36689 311.03438 240.49565 293.23597 225.65625 284.15625 C 213.58625 276.7655 200.60743 278.44677 193.07812 283.42773 C 186.54683 287.758 182.84916 294.48621 182.91406 301.87695 C 183.06486 314.98704 194.35812 321.95551 202.47852 321.97656 C 204.83742 321.97656 207.20585 321.56718 209.87695 320.69727 C 210.82755 320.40788 211.72133 320.04784 212.70703 319.4375 L 213.01562 319.25586 L 213.21094 319.12695 L 213.14648 319.16602 C 214.99678 317.905 216.10938 315.85364 216.10938 313.6543 C 216.10938 313.05449 216.02562 312.44608 215.85352 311.83398 C 214.89422 308.51393 211.6158 306.50589 208.2168 307.125 L 207.75586 307.23438 L 207.13672 307.42383 L 206.23438 307.73438 C 204.36478 308.19388 202.96592 308.23361 202.66602 308.24414 C 201.71542 308.18274 197.04102 306.78357 197.04102 301.66406 L 197.04102 301.59375 C 197.04102 299.71362 197.79534 298.39466 198.21094 297.67383 C 199.66494 295.39381 203.64629 293.15477 209.02539 293.62305 C 216.08469 294.23339 221.17402 297.85408 224.54492 304.68359 C 227.67382 311.03255 226.85525 318.84336 222.43555 324.56445 C 218.04565 330.23291 210.22934 332.6424 199.83594 331.52344 C 189.35494 330.36414 180.4966 324.33176 175.5332 314.94336 C 170.6767 305.76543 170.41216 294.88428 174.84766 286.52539 C 185.45676 266.49634 205.49638 266.70604 216.48438 268.60547 C 232.74437 271.42567 251.24153 286.42481 257.80273 303.74414 C 258.86203 306.50471 259.4032 308.69221 259.875 310.69336 L 260.58203 313.68359 L 278.95312 322.6543 L 279.19336 322.83398 L 279.63867 322.79297 L 279.71875 322.26367 C 279.60475 321.85327 279.33846 321.47453 278.91406 316.33398 C 278.56496 311.7722 277.85498 299.28311 284.14258 293.09375 C 286.58398 290.67518 290.30449 288.51719 293.24219 287.82617 C 305.28239 284.88495 319.4014 286.91376 332.75 302.36523 C 339.6602 310.34528 343.02805 313.98395 344.71875 315.61328 L 345.30859 316.14453 L 346.00391 316.66406 C 346.55811 316.96573 368.95703 327.28516 368.95703 327.28516 L 369.41797 327.17578 L 369.42773 326.69531 C 369.27863 326.52518 355.22947 308.36764 357.73047 293.41602 C 359.70007 281.50733 369.17701 282.58615 382.28711 284.06641 C 386.56651 284.56625 391.44027 285.12603 396.48438 285.23828 C 410.56788 285.32778 425.73809 282.72672 435.08789 278.63672 C 441.13689 276.00769 444.99752 274.25792 447.41602 272.05859 C 448.28592 271.33775 448.73703 270.16747 449.20703 268.9082 L 449.53516 268.07617 C 449.92626 267.05543 450.50326 264.90712 450.75586 263.72852 C 450.85756 263.20938 450.91688 262.66028 450.54688 262.36914 L 449.25195 262.60938 C 445.14615 265.08056 434.88251 269.75904 425.28711 269.95898 C 413.37321 270.19926 389.38967 257.9793 386.88867 256.67969 L 386.64844 256.40039 C 386.05914 254.96047 382.4574 246.44985 381.6875 244.65039 C 398.9577 256.02942 413.28295 262.31918 424.24805 263.28906 C 436.45371 264.37635 445.96691 257.71589 450.03125 254.86719 C 450.03125 254.86719 450.0332 254.86719 450.0332 254.86719 C 450.8374 254.33623 451.42694 253.89502 451.67578 253.79688 L 451.94531 253.37891 C 451.26481 249.0995 444.88545 228.34909 440.06055 223.35938 C 438.73115 222.00014 437.66722 220.65946 435.51172 219.39844 C 418.05732 209.22782 376.64868 203.08921 374.70898 202.80859 L 374.37891 202.90039 L 374.25391 203.19922 C 374.25391 203.19922 374.09481 211.78087 374.07031 212.74023 C 369.84171 211.31961 339.0987 201.38837 310.2793 200.38867 C 304.1693 200.17382 297.36218 199.81558 289.85156 199.85156 z M 421.00586 220.33789 C 430.76606 220.68691 438.43656 228.92804 438.10156 238.67773 C 437.91746 243.40789 435.93623 247.7963 432.48633 251.00586 C 429.02603 254.25576 424.52228 255.92718 419.76758 255.76758 C 410.01788 255.40804 402.35729 247.18619 402.68359 237.42773 C 402.85889 232.69757 404.84013 228.30797 408.29883 225.08789 C 411.75913 221.85728 416.27216 220.18706 421.00586 220.33789 z M 420.85742 225.55664 C 417.54612 225.43738 414.40701 226.60722 412.00781 228.85742 C 409.60851 231.10762 408.19375 234.15627 408.09375 237.45703 C 407.86405 244.27778 413.20281 250.01678 420.00781 250.26758 C 423.31731 250.36758 426.47342 249.19747 428.88672 246.94727 C 431.29652 244.68655 432.68181 241.63614 432.78711 238.34766 C 433.01681 231.52866 427.67822 225.79867 420.85742 225.55664 z M 422.87695 231.75781 C 425.90755 231.75781 428.36328 233.38875 428.36328 235.41797 C 428.36328 237.42789 425.90585 239.06836 422.87695 239.06836 C 419.84625 239.06836 417.39844 237.42789 417.39844 235.41797 C 417.39844 233.38875 419.84625 231.75781 422.87695 231.75781 z M 413.73828 339.85742 L 413.73828 339.86328 C 411.42848 339.86328 409.68359 341.57426 409.68359 343.84375 L 409.68359 383.20117 C 409.68359 385.46014 411.38748 387.16211 413.64648 387.16211 L 445.01172 387.16211 C 447.42682 387.16211 449.17187 385.49171 449.17188 383.20117 L 449.17188 382.16016 C 449.17188 379.86086 447.42682 378.18164 445.01172 378.18164 L 419.32422 378.18164 L 419.32422 368.16016 L 438.14648 368.16016 C 440.55628 368.16016 442.30664 366.47023 442.30664 364.17969 L 442.30664 363.14062 C 442.30664 360.83956 440.55628 359.16797 438.14648 359.16797 L 419.32422 359.16797 L 419.32422 348.84961 L 443.70703 348.84961 C 446.11333 348.84961 447.86719 347.1905 447.86719 344.87891 L 447.86719 343.83789 C 447.86719 341.53682 446.11333 339.85742 443.70703 339.85742 L 413.73828 339.85742 z M 273.97852 339.86328 C 266.19492 339.86328 261.91406 346.44268 261.91406 350.99219 L 261.91406 356.83203 C 261.91406 363.53177 267.38719 367.68359 272.46289 367.68359 L 290.2832 367.68359 C 292.5281 367.68359 292.99805 369.15455 292.99805 370.39453 L 292.99805 374.16211 C 292.99805 374.56199 292.9171 378.18164 290.2832 378.18164 L 265.98047 378.18164 C 263.56537 378.18164 261.82031 379.8628 261.82031 382.16211 L 261.82031 383.20312 C 261.82031 385.49367 263.56537 387.16406 265.98047 387.16406 L 291.60352 387.16406 C 298.30152 387.16406 302.62305 382.50404 302.62305 375.28516 L 302.62305 368.98438 C 302.62305 362.20572 297.75327 359.17383 292.91797 359.17383 L 275.38281 359.17383 C 272.74331 359.17383 271.54883 357.1945 271.54883 355.79492 L 271.54883 352.31445 C 271.54883 350.12388 273.01157 348.85352 275.57227 348.85352 L 294.98047 348.85352 C 297.36047 348.85352 299.15234 347.14354 299.15234 344.88281 L 299.15234 343.84375 C 299.15234 341.57426 297.33119 339.86328 294.90039 339.86328 L 273.97852 339.86328 z M 315.04102 339.86328 C 312.70662 339.86328 310.87109 341.70408 310.87109 344.0332 L 310.87109 375.00195 C 310.87109 382.21205 316.54417 387.44141 324.35938 387.44141 L 338.8457 387.44141 C 346.6504 387.44141 352.32031 382.21381 352.32031 375.00195 L 352.32031 344.0332 C 352.32031 341.70408 350.49106 339.86328 348.16016 339.86328 L 346.8418 339.86328 C 344.5408 339.86328 342.68555 341.73214 342.68555 344.0332 L 342.68555 373.87109 C 342.68555 376.2616 340.7357 378.18164 338.375 378.18164 L 324.83008 378.18164 C 322.46068 378.18164 320.52148 376.2616 320.52148 373.87109 L 320.52148 344.0332 C 320.52148 341.73214 318.65086 339.86328 316.35156 339.86328 L 315.04102 339.86328 z M 372.77344 339.86328 C 364.99334 339.86328 360.69922 346.44268 360.69922 350.99219 L 360.69922 356.83203 C 360.69922 363.53177 366.18447 367.68359 371.26367 367.68359 L 389.07812 367.68359 C 391.32662 367.68359 391.79688 369.15455 391.79688 370.39453 L 391.79688 374.16211 C 391.79688 374.56199 391.71743 378.18164 389.07812 378.18164 L 364.76367 378.18164 C 362.35917 378.18164 360.60352 379.8628 360.60352 382.16211 L 360.60352 383.20312 C 360.60352 385.49367 362.35917 387.16406 364.76367 387.16406 L 390.39648 387.16406 C 397.09628 387.16406 401.4375 382.50404 401.4375 375.28516 L 401.4375 368.98438 C 401.4375 362.20572 396.5522 359.17383 391.7168 359.17383 L 374.18359 359.17383 C 371.53699 359.17383 370.34375 357.1945 370.34375 355.79492 L 370.34375 352.31445 C 370.34375 350.12388 371.80854 348.85352 374.36914 348.85352 L 393.78906 348.85352 C 396.16376 348.85352 397.94727 347.14354 397.94727 344.88281 L 397.94727 343.84375 C 397.94727 341.57426 396.1288 339.86328 393.6875 339.86328 L 372.77344 339.86328 z M 185.11133 358.41211 C 182.34374 358.41211 180.25696 359.40066 178.58203 360.21094 C 177.56128 360.70027 176.67599 361.12305 175.99023 361.12305 C 175.6798 361.12305 175.4157 360.98171 175.27539 360.75195 L 174.63672 359.53125 C 174.47712 359.21029 173.83787 358.58398 173.04688 358.58398 L 172.09766 358.58398 C 171.18565 358.58398 170.45508 359.40264 170.45508 360.40234 L 170.45508 398.04102 C 170.45508 399.22136 171.38781 400.15039 172.56641 400.15039 L 173.38672 400.15039 C 174.55654 400.15039 175.50586 399.21084 175.50586 398.04102 L 175.50586 385.55273 C 175.50586 385.18267 175.74644 384.7832 175.99023 384.7832 C 176.67599 384.7832 177.56128 385.18406 178.58203 385.65234 C 180.25696 386.42229 182.34374 387.37109 185.11133 387.37109 L 185.99609 387.37109 C 190.89637 387.37109 193.94531 384.57091 193.94531 380.07227 L 193.94531 365.70312 C 193.94531 361.27288 190.83148 358.41211 185.99609 358.41211 L 185.11133 358.41211 z M 244.89453 358.41211 C 242.13571 358.41211 240.05325 359.39966 238.37305 360.20117 C 237.32775 360.69225 236.43664 361.12305 235.70703 361.12305 C 235.38608 361.12305 235.2549 361.08188 235.00586 360.65039 L 234.42578 359.5918 C 234.09255 358.92183 233.5264 358.58398 232.76172 358.58398 L 231.94531 358.58398 C 230.95964 358.58398 230.24023 359.35178 230.24023 360.40234 L 230.24023 385.0918 C 230.24023 386.26162 231.1646 387.20117 232.35547 387.20117 L 233.17188 387.20117 C 234.34169 387.20117 235.29492 386.2511 235.29492 385.0918 L 235.29492 366.41211 C 235.29492 364.66176 236.72426 363.22461 238.47461 363.22461 L 245.48828 363.22461 C 247.24389 363.22461 248.67383 364.66176 248.67383 366.41211 L 248.67383 385.0918 C 248.67383 386.26162 249.60286 387.20117 250.7832 387.20117 L 251.60938 387.20117 C 252.77919 387.20117 253.72852 386.2511 253.72852 385.0918 L 253.72852 365.70117 C 253.72852 361.27092 250.61428 358.41211 245.77539 358.41211 L 244.89453 358.41211 z M 208.14648 358.58008 L 208.14648 358.58398 C 204.21609 358.58398 201.02539 361.64132 201.02539 365.41211 L 201.02539 380.14062 C 201.02539 383.96053 204.12661 387.20117 207.78516 387.20117 L 217.68945 387.20117 C 218.91364 387.20117 219.79883 386.3515 219.79883 385.19922 L 219.79883 384.55078 C 219.79883 383.39148 218.91364 382.56055 217.68945 382.56055 L 209.55273 382.56055 C 207.27271 382.56055 206.07031 381.43953 206.07031 379.30859 L 206.07031 375 L 220.74805 375 C 223.10874 375 224.50391 373.55876 224.50391 371.11914 L 224.50391 365.4082 C 224.50391 361.63916 221.30914 358.58008 217.39453 358.58008 L 208.14648 358.58008 z M 147.12891 358.58398 C 143.19851 358.58398 140 361.64132 140 365.41211 L 140 380.25195 C 140 384.08237 143.09528 387.20312 146.89062 387.20312 L 156.49023 387.20312 C 160.28558 387.20312 163.38086 384.08237 163.38086 380.25195 L 163.38086 365.41211 C 163.38086 361.64307 160.18059 358.58398 156.25195 358.58398 L 147.12891 358.58398 z M 147.95312 363.22461 L 155.43164 363.22461 C 156.99257 363.22461 158.32227 364.5541 158.32227 366.11328 L 158.32227 379.66211 C 158.32227 381.26163 157.02765 382.5625 155.43164 382.5625 L 147.89844 382.5625 C 146.29892 382.5625 145.05273 381.28969 145.05273 379.66211 L 145.05273 366.11328 C 145.05273 364.52429 146.35712 363.22461 147.95312 363.22461 z M 178.69727 363.22461 L 185.70703 363.22461 C 187.49771 363.22461 188.89648 364.62318 188.89648 366.41211 L 188.89648 379.37305 C 188.89648 381.13217 187.46088 382.5625 185.70703 382.5625 L 178.69727 382.5625 C 176.94166 382.5625 175.50781 381.13217 175.50781 379.37305 L 175.50781 366.41211 C 175.50781 364.62142 176.90834 363.22461 178.69727 363.22461 z M 208.91406 363.22461 L 216.625 363.22461 C 218.21399 363.22461 219.45312 364.47175 219.45312 366.0625 L 219.45312 370.66211 L 206.07031 370.66211 C 206.07231 370.06229 206.07227 366.0625 206.07227 366.0625 C 206.07227 364.47175 207.32156 363.22461 208.91406 363.22461 z M 456.14453 377.63086 C 454.00833 377.63086 452.27344 379.36778 452.27344 381.53906 C 452.27344 383.74366 454.00833 385.46289 456.14453 385.46289 C 458.29651 385.46289 460 383.74366 460 381.53906 C 460 379.36603 458.29831 377.63086 456.16211 377.63086 L 456.14453 377.63086 z M 456.14453 378.23633 L 456.16211 378.23633 C 457.89843 378.23633 459.28711 379.71314 459.28711 381.55469 C 459.28711 383.39624 457.89843 384.87282 456.16211 384.85352 C 454.4258 384.85352 453.01953 383.3962 453.01953 381.53711 C 453.01953 379.7131 454.42575 378.23633 456.14453 378.23633 z M 455.95312 379.34961 C 455.43222 379.34961 455.08551 379.40053 454.7207 379.45312 L 454.7207 383.8125 L 455.41602 383.8125 L 455.41797 383.8125 L 455.41797 381.9375 L 455.90234 381.9375 C 456.45832 381.9375 456.73657 382.14696 456.8418 382.70117 C 456.92774 383.27469 457.03148 383.6759 457.13672 383.81445 L 457.86523 383.81445 C 457.79508 383.6759 457.69312 383.41507 457.58789 382.73633 C 457.5002 382.09267 457.24171 381.74613 456.85938 381.67773 L 456.85938 381.64062 C 457.32765 381.50032 457.70898 381.15379 457.70898 380.58203 C 457.70898 380.16286 457.56992 379.86715 457.30859 379.67773 C 457.04902 379.48656 456.61433 379.34961 455.95312 379.34961 z M 455.91797 379.88477 C 456.70019 379.88477 456.97852 380.26805 456.97852 380.65039 C 456.97852 381.19058 456.49148 381.39648 455.91797 381.39648 L 455.41602 381.39648 L 455.41602 379.92188 C 455.53704 379.90258 455.69172 379.88477 455.91797 379.88477 z "
       transform="translate(0,-258.875)"
       id="Geeko" />
  </g>
</svg>
