<?xml version="1.0" encoding="UTF-8" standalone="no"?>
<!-- Created with Inkscape (http://www.inkscape.org/) -->

<svg
   xmlns:dc="http://purl.org/dc/elements/1.1/"
   xmlns:cc="http://creativecommons.org/ns#"
   xmlns:rdf="http://www.w3.org/1999/02/22-rdf-syntax-ns#"
   xmlns:svg="http://www.w3.org/2000/svg"
   xmlns="http://www.w3.org/2000/svg"
   xmlns:sodipodi="http://sodipodi.sourceforge.net/DTD/sodipodi-0.dtd"
   xmlns:inkscape="http://www.inkscape.org/namespaces/inkscape"
   width="600"
   height="600"
   viewBox="0 0 600 600"
   version="1.1"
   id="svg8"
   inkscape:version="0.92.1 r"
   sodipodi:docname="perl-package.svg"
   inkscape:export-filename="/home/sign/git/suse/software/app/assets/images/default-screenshots/perl-package.png"
   inkscape:export-xdpi="96"
   inkscape:export-ydpi="96">
  <defs
     id="defs2" />
  <sodipodi:namedview
     id="base"
     pagecolor="#ffffff"
     bordercolor="#666666"
     borderopacity="1.0"
     inkscape:pageopacity="0"
     inkscape:pageshadow="2"
     inkscape:zoom="0.7"
     inkscape:cx="270.74058"
     inkscape:cy="188.07916"
     inkscape:document-units="px"
     inkscape:current-layer="layer1"
     showgrid="false"
     units="px"
     inkscape:window-width="1280"
     inkscape:window-height="995"
     inkscape:window-x="1920"
     inkscape:window-y="0"
     inkscape:window-maximized="1"
     inkscape:object-nodes="false" />
  <metadata
     id="metadata5">
    <rdf:RDF>
      <cc:Work
         rdf:about="">
        <dc:format>image/svg+xml</dc:format>
        <dc:type
           rdf:resource="http://purl.org/dc/dcmitype/StillImage" />
        <dc:title></dc:title>
      </cc:Work>
    </rdf:RDF>
  </metadata>
  <g
     inkscape:label="Layer 1"
     inkscape:groupmode="layer"
     id="layer1"
     transform="translate(0,258.875)">
    <rect
       style="opacity:1;fill:#35b9ab;fill-opacity:1;stroke:none;stroke-width:3;stroke-linecap:round;stroke-linejoin:round;stroke-miterlimit:4;stroke-dasharray:none;stroke-dashoffset:0;stroke-opacity:1"
       id="rect4600"
       width="600"
       height="600"
       x="0"
       y="-258.875" />
    <path
       style="fill:#ffffff;stroke-width:51.3782692"
       d="m 323.8267,47.06165 c 0.52073,12.173084 8.47841,34.573425 -3.0775,45.395476 -7.27726,-0.543066 -16.58671,-10.593368 -9.29902,-16.858782 8.16535,-2.764948 3.77109,-12.655333 9.01322,-18.101203 1.10565,-2.685525 0.44809,-10.440492 3.32631,-10.50945 m -2.55289,-95.011736 c -10.68302,2.238505 -21.83203,7.028809 -26.02397,18.095969 -5.41671,13.341851 -22.12827,17.883208 -24.98409,32.9419377 -0.46847,3.287457 -4.49292,15.1225823 -4.75537,6.2493771 0.0414,-7.1055974 5.35124,-13.2925289 3.68307,-20.7583738 1.03489,-8.479824 -4.11988,-15.66787 -8.41344,-22.06085 -5.95086,-6.893449 -16.06226,-7.275273 -20.1362,1.389174 -7.68832,1.522679 -17.50773,1.433335 -20.18758,10.719111 -1.88525,13.0481149 28.53022,1.319757 10.27547,20.3606517 0.57448,9.5757247 -2.9884,22.0654253 3.26304,30.5005123 2.89613,3.019895 2.95452,6.969027 7.25065,7.531495 -0.52402,7.362044 10.45636,7.586124 13.49732,13.670286 3.2103,-5.25823 4.547,2.205031 8.39131,0.57375 5.63696,-1.741144 11.06069,-6.294588 9.78528,2.661949 -1.18115,18.790589 7.95605,37.239974 2.67753,55.899376 -0.88056,7.91736 -5.4065,13.3793 -12.40715,16.02135 -0.82302,6.74847 11.08016,5.97813 15.68404,3.94429 3.37413,-7.37238 3.17116,-17.27488 4.24267,-25.8078 3.07499,-9.950562 3.33318,-20.350611 4.93291,-30.318723 1.43657,-7.031742 5.85505,-12.994184 3.92183,-20.904047 6.90362,-3.090829 9.44572,-0.09624 6.74844,6.148385 1.45319,7.854429 -5.50271,15.260697 -1.4493,23.138145 4.73677,7.366218 14.08491,10.959222 18.2902,18.7015 -0.27174,3.8844 -2.97554,7.90684 -6.61862,9.55203 -7.71007,2.32061 -2.65709,9.21131 3.82419,6.50973 5.7759,0.57786 9.69818,-2.99089 9.69172,-8.51528 1.37366,5.6945 6.7163,10.74807 11.91346,6.51174 1.35872,-7.22134 -3.16277,-12.96028 -7.28867,-17.426246 1.986,-8.901783 9.74799,-15.151294 12.5756,-23.443328 -1.80186,-12.367735 -1.16782,-25.723878 6.21955,-36.345997 1.36708,14.856937 13.74656,25.849864 12.85577,40.924251 3.5554,14.223759 -0.62518,29.10871 -3.19385,42.37007 4.42627,0.89684 11.50346,3.0808 14.18653,-2.53014 -5.53463,-14.34397 -2.36544,-29.59214 -2.56327,-44.144829 -1.7474,-16.150404 -6.07573,-34.995237 -0.4921,-50.937718 5.34806,9.640537 1.51247,20.441714 1.40246,30.455469 -0.91349,9.5292 9.03335,-0.467877 7.42628,-4.891194 4.9959,-10.489909 4.14698,-18.104194 1.01874,-28.747314 -7.0363,-10.9097849 -14.21146,-21.9773632 -20.49152,-33.543629 -4.99331,-6.700293 -10.11268,-13.623327 -11.81459,-21.992059 -3.55292,-8.918015 -13.26838,-15.422661 -22.93834,-12.540027"
       id="path5521"
       inkscape:connector-curvature="0" />
  </g>
  <style
     id="style5445">.st0{fill:#8181D3;}</style>
</svg>
