<?xml version="1.0" encoding="UTF-8" standalone="no"?>
<!-- Created with Inkscape (http://www.inkscape.org/) -->

<svg
   xmlns:dc="http://purl.org/dc/elements/1.1/"
   xmlns:cc="http://creativecommons.org/ns#"
   xmlns:rdf="http://www.w3.org/1999/02/22-rdf-syntax-ns#"
   xmlns:svg="http://www.w3.org/2000/svg"
   xmlns="http://www.w3.org/2000/svg"
   xmlns:sodipodi="http://sodipodi.sourceforge.net/DTD/sodipodi-0.dtd"
   xmlns:inkscape="http://www.inkscape.org/namespaces/inkscape"
   width="600"
   height="600"
   viewBox="0 0 600 600"
   version="1.1"
   id="svg8"
   inkscape:version="0.92.1 r"
   sodipodi:docname="python-package.svg"
   inkscape:export-filename="/home/sign/git/suse/software/app/assets/images/default-screenshots/python-package.png"
   inkscape:export-xdpi="96"
   inkscape:export-ydpi="96">
  <defs
     id="defs2" />
  <sodipodi:namedview
     id="base"
     pagecolor="#ffffff"
     bordercolor="#666666"
     borderopacity="1.0"
     inkscape:pageopacity="0"
     inkscape:pageshadow="2"
     inkscape:zoom="0.7"
     inkscape:cx="270.74058"
     inkscape:cy="188.07916"
     inkscape:document-units="px"
     inkscape:current-layer="layer1"
     showgrid="false"
     units="px"
     inkscape:window-width="1280"
     inkscape:window-height="995"
     inkscape:window-x="1920"
     inkscape:window-y="0"
     inkscape:window-maximized="1"
     inkscape:object-nodes="false" />
  <metadata
     id="metadata5">
    <rdf:RDF>
      <cc:Work
         rdf:about="">
        <dc:format>image/svg+xml</dc:format>
        <dc:type
           rdf:resource="http://purl.org/dc/dcmitype/StillImage" />
        <dc:title></dc:title>
      </cc:Work>
    </rdf:RDF>
  </metadata>
  <g
     inkscape:label="Layer 1"
     inkscape:groupmode="layer"
     id="layer1"
     transform="translate(0,258.875)">
    <rect
       style="opacity:1;fill:#35b9ab;fill-opacity:1;stroke:none;stroke-width:3;stroke-linecap:round;stroke-linejoin:round;stroke-miterlimit:4;stroke-dasharray:none;stroke-dashoffset:0;stroke-opacity:1"
       id="rect4600"
       width="600"
       height="600"
       x="0"
       y="-258.875" />
    <path
       style="fill:#ffffff;stroke-width:1"
       d="M 300.76758 215.00195 C 299.66788 214.99555 298.55007 215.00309 297.41211 215.02539 C 294.66812 215.07917 291.44882 215.2036 290.25977 215.30078 C 273.81405 216.64486 263.55233 221.18469 260.06836 228.6582 C 259.06335 230.81402 259.07224 230.6793 259.11914 242.41797 L 259.16211 253.13477 L 279.7832 253.21875 C 291.12505 253.26538 300.42241 253.32178 300.44531 253.34375 C 300.46821 253.36572 300.48828 254.64822 300.48828 256.19336 C 300.48828 258.64538 300.45322 259.01594 300.21484 259.10742 C 300.06462 259.16507 286.23179 259.20784 269.47461 259.20117 C 239.08886 259.18904 239.00257 259.18834 237.27734 259.53906 C 229.40093 261.14026 223.56511 265.95031 219.66016 274.05859 C 216.6307 280.34901 215.14193 287.74195 214.89844 297.70312 C 214.50772 313.68803 217.61968 326.42017 223.78516 334.05664 C 227.04021 338.0883 231.64664 340.92293 236.32422 341.77344 C 237.24338 341.94061 239.49938 341.98748 245.52539 341.9668 L 253.50781 341.93945 L 253.60547 329.9668 C 253.71021 317.09736 253.688 317.42432 254.64453 313.91797 C 256.77229 306.11815 262.01108 300.56573 269.14062 298.55078 C 272.81123 297.51342 271.22923 297.57454 297.41211 297.46094 C 323.7773 297.34654 321.9683 297.4199 325.95117 296.30078 C 332.08493 294.5773 336.71133 290.98857 339.22266 286.00781 C 339.94803 284.56919 340.81735 281.89518 341.17969 279.99219 C 341.46051 278.51747 341.48242 276.941 341.48242 256.29492 L 341.48242 234.17578 L 341.09961 232.8457 C 340.59992 231.10034 339.29644 228.46588 338.24805 227.08594 C 337.78699 226.47906 336.77189 225.38074 335.99414 224.64453 C 329.4124 218.41436 317.26299 215.09804 300.76758 215.00195 z M 276.66797 228.10352 C 277.45681 228.08221 278.26519 228.18808 279.06641 228.43555 C 281.74015 229.26138 283.70943 231.55067 284.21484 234.41992 C 284.76275 237.53045 282.9405 240.86335 279.91406 242.28516 C 278.91981 242.75225 278.58786 242.82166 277.12305 242.86523 C 275.77856 242.90524 275.2726 242.84944 274.48828 242.57227 C 270.97869 241.33201 268.90371 237.83797 269.54492 234.25 C 270.1855 230.66552 273.24964 228.19584 276.66797 228.10352 z M 347.13477 258.12305 L 347.03906 270.01367 C 346.93417 282.80417 346.95892 282.40763 345.98828 286.04883 C 344.69592 290.8969 341.80431 295.41004 338.30078 298.04688 C 335.36799 300.25415 332.2444 301.48361 327.48242 302.30469 C 326.66964 302.44483 319.60482 302.52999 302.56641 302.60547 L 278.78516 302.71094 L 276.87305 303.14453 C 268.22395 305.11051 262.69418 309.62144 260.35547 316.61719 C 259.07377 320.4511 259.05248 320.94019 259.11328 345.01758 L 259.16602 366.05469 L 259.54492 367.30078 C 262.8059 378.03162 275.62238 384.17328 296.33008 384.92578 C 300.3374 385.0714 305.6402 384.99936 309.38477 384.74805 C 320.51404 384.0011 328.95773 381.75944 334.49609 378.08398 C 336.31948 376.87391 339.00585 374.18015 339.89062 372.67383 C 340.74978 371.2111 341.34987 369.53068 341.51953 368.11523 C 341.58973 367.53003 341.61015 362.48766 341.56445 356.9082 L 341.48047 346.76367 L 320.85938 346.67969 L 300.23828 346.59766 L 300.23828 343.76953 L 300.23828 340.94336 L 331.33789 340.85352 C 365.85606 340.75483 362.91919 340.85514 366.42773 339.66406 C 372.56958 337.57904 377.4248 333.09684 380.71875 326.47461 C 382.35205 323.19095 383.44625 320.00041 384.28125 316.08008 C 385.13046 312.09148 385.13677 311.98565 385.13477 299.82617 C 385.13284 287.33174 385.12185 287.14974 384.0625 282.25195 C 381.30828 269.51811 374.83814 261.07619 365.92773 258.58789 L 364.26562 258.12305 L 355.70117 258.12305 L 347.13477 258.12305 z M 323.97656 357.03516 C 324.27664 357.04556 324.58005 357.07646 324.88477 357.12695 C 328.07843 357.65616 330.55905 360.13963 331.09961 363.35156 C 331.75496 367.24554 328.90841 371.13491 324.93359 371.7793 C 324.33906 371.87567 323.74072 371.9475 323.60352 371.9375 C 319.90572 371.66794 317.07444 369.18174 316.44336 365.65039 C 315.62999 361.09907 319.47541 356.87912 323.97656 357.03516 z "
       transform="translate(0,-258.875)"
       id="path2997" />
  </g>
  <style
     id="style5445">.st0{fill:#8181D3;}</style>
</svg>
