<?xml version="1.0" encoding="UTF-8" standalone="no"?>
<!-- Created with Inkscape (http://www.inkscape.org/) -->

<svg
   xmlns:dc="http://purl.org/dc/elements/1.1/"
   xmlns:cc="http://creativecommons.org/ns#"
   xmlns:rdf="http://www.w3.org/1999/02/22-rdf-syntax-ns#"
   xmlns:svg="http://www.w3.org/2000/svg"
   xmlns="http://www.w3.org/2000/svg"
   xmlns:sodipodi="http://sodipodi.sourceforge.net/DTD/sodipodi-0.dtd"
   xmlns:inkscape="http://www.inkscape.org/namespaces/inkscape"
   width="600"
   height="600"
   viewBox="0 0 600 600"
   version="1.1"
   id="svg8"
   inkscape:version="0.92.1 r"
   sodipodi:docname="ruby-package.svg"
   inkscape:export-filename="/home/sign/git/suse/software/app/assets/images/default-screenshots/ruby-package.png"
   inkscape:export-xdpi="96"
   inkscape:export-ydpi="96">
  <defs
     id="defs2" />
  <sodipodi:namedview
     id="base"
     pagecolor="#ffffff"
     bordercolor="#666666"
     borderopacity="1.0"
     inkscape:pageopacity="0"
     inkscape:pageshadow="2"
     inkscape:zoom="0.7"
     inkscape:cx="394.55245"
     inkscape:cy="358.37015"
     inkscape:document-units="px"
     inkscape:current-layer="layer1"
     showgrid="false"
     units="px"
     inkscape:window-width="1280"
     inkscape:window-height="995"
     inkscape:window-x="1920"
     inkscape:window-y="0"
     inkscape:window-maximized="1"
     inkscape:object-nodes="false" />
  <metadata
     id="metadata5">
    <rdf:RDF>
      <cc:Work
         rdf:about="">
        <dc:format>image/svg+xml</dc:format>
        <dc:type
           rdf:resource="http://purl.org/dc/dcmitype/StillImage" />
        <dc:title></dc:title>
      </cc:Work>
    </rdf:RDF>
  </metadata>
  <g
     inkscape:label="Layer 1"
     inkscape:groupmode="layer"
     id="layer1"
     transform="translate(0,258.875)">
    <rect
       style="opacity:1;fill:#35b9ab;fill-opacity:1;stroke:none;stroke-width:3;stroke-linecap:round;stroke-linejoin:round;stroke-miterlimit:4;stroke-dasharray:none;stroke-dashoffset:0;stroke-opacity:1"
       id="rect4600"
       width="600"
       height="600"
       x="0"
       y="-258.875" />
    <path
       id="path5447"
       d="m 259.44128,109.58484 c 40.01431,5.71634 78.93979,10.61605 118.68189,16.33238 C 364.51286,103.3241 351.17476,81.275412 337.83666,59.226708 Z M 389.28363,-15.629986 c -3.53869,5.171918 -7.07736,10.3438345 -10.34384,15.7879572 -11.97707,18.2378138 -24.22634,36.2034198 -36.20342,54.4412328 -0.81662,1.088824 -1.63324,1.633236 -0.54442,3.266473 11.43267,19.054429 23.40974,38.381063 34.57018,57.707713 1.90545,2.99426 3.8109,6.26074 6.26075,8.9828 2.17765,-46.819464 4.3553,-93.366716 6.80515,-140.186176 0,0.272207 -0.5444,0 -0.5444,0 z M 230.85964,44.25537 c 0.54441,0.544412 1.90544,0.816617 2.44986,0.544412 11.16044,-5.71633 22.3209,-10.888247 33.20914,-16.876782 3.8109,-1.905442 6.26074,-5.444123 9.25502,-8.438391 10.07162,-9.25501 20.41546,-18.5100188 30.21488,-27.7650285 0.54441,-0.544412 1.36103,-1.088825 1.63323,-1.9054425 3.81089,-7.077359 7.34957,-14.154719 10.88825,-21.776491 -4.3553,-1.633237 -8.7106,-3.266474 -12.79368,-4.899711 -0.54442,-0.272207 -1.36104,0.272207 -2.17766,0.544412 -9.79942,5.71633 -19.59884,10.61604 -29.12606,16.604575 -4.8997,2.994268 -8.7106,7.621772 -12.79368,11.1604515 -6.80516,6.260741 -13.3381,12.2492767 -20.14326,18.7822245 -1.63324,1.633237 -3.26648,3.810887 -4.89972,5.71633 -4.6275,6.805154 -8.98279,13.338102 -13.6103,20.415462 2.99427,2.994268 5.44413,5.716329 7.89398,7.893979 z m 40.83092,-9.25501 c -5.71633,23.681936 -10.88824,46.547258 -16.87678,70.7736 26.6762,-17.148981 52.80799,-34.025768 78.66758,-50.630344 C 312.7937,48.882874 292.10602,42.07772 271.69056,35.00036 Z m 110.78791,-50.358139 c -22.59311,3.810887 -44.64181,7.6217715 -66.96272,11.1604515 7.62178,18.5100185 14.97134,36.4756265 22.86532,55.2578505 14.69914,-22.048698 29.12606,-44.0973979 44.0974,-66.418302 z M 272.50718,30.372855 c 20.41546,6.532948 40.28652,13.065896 60.70198,19.598843 C 325.58738,31.461681 318.23782,13.496074 310.61604,-4.7417395 297.82236,7.2353317 285.30086,18.667991 272.50718,30.372855 Z m -40.83092,27.492822 c -7.34957,17.148983 -14.15472,33.753563 -21.23209,50.630353 13.61031,-0.54442 26.94841,-0.81662 40.55872,-1.08883 C 244.46994,91.074827 237.937,74.742453 231.67626,57.865677 Z m 19.59884,37.83665 h 0.54441 c 4.89972,-20.143254 9.79943,-40.286505 14.69913,-61.518585 -10.88824,5.988534 -21.77649,11.160452 -32.39252,16.876781 5.44412,14.699133 11.43265,29.670476 17.14898,44.641804 z M 374.58449,-18.624251 c -6.53294,-1.633238 -12.79368,-3.53868 -19.32664,-5.171918 -9.255,-2.449855 -18.51002,-4.899711 -27.76503,-7.621772 -1.08882,-0.272207 -2.17764,-0.544412 -2.72205,0.816619 -3.26648,6.805153 -6.80516,13.338101 -9.79943,20.143254 -0.27221,0.272206 -0.27221,0.5444115 -0.27221,1.0888235 19.87105,-2.7220605 40.01432,-5.9885345 59.88536,-9.2550065 -0.2722,0.272205 0,0 0,0 z m -37.56445,-15.243545 52.53579,14.699131 c -2.99427,-8.710596 -5.98854,-16.604574 -8.7106,-24.770759 l -43.82519,10.071628 c 0,-0.544412 0,0 0,0 z M 255.6304,113.66794 c -6.53294,-0.81662 -13.06589,0 -19.87105,0 -5.71633,0.27221 -10.88825,0.27221 -16.33237,0.54442 -0.54441,0 -1.08883,0.27221 -1.63324,0.81662 44.91402,4.35529 89.82803,8.43839 134.74205,12.24927 l 0.27221,-0.54441 c -14.15472,-2.17765 -28.85385,-4.08309 -43.28078,-5.98853 -17.9656,-2.44986 -35.93122,-5.17192 -53.89682,-7.07737 z M 211.26079,93.252479 c 5.98854,-13.3381 11.43266,-26.948411 17.4212,-40.286513 0.54442,-1.361031 0.54442,-2.449855 -0.54441,-3.266473 -2.44986,-2.17765 -4.62751,-4.899711 -7.62177,-7.621773 -3.81089,17.6934 -7.07736,34.842386 -10.34384,52.263586 l 0.54441,0.272206 c 0,-0.544414 0.27221,-0.81662 0.54441,-1.361033 z M 325.58738,-37.406476 c 9.52721,-2.449856 19.59885,-4.627505 29.39826,-6.805154 0.54441,-0.272206 1.36103,-0.272206 1.90545,-0.544413 l -0.27221,-0.272205 c -13.61031,1.905442 -27.49282,3.810885 -42.46416,5.988535 4.3553,1.36103 7.34957,2.449856 11.43266,1.633237 z"
       class="st0"
       inkscape:connector-curvature="0"
       style="fill:#ffffff;stroke-width:1" />
  </g>
  <style
     id="style5445">.st0{fill:#8181D3;}</style>
</svg>
