<svg xmlns="http://www.w3.org/2000/svg" width="265.777" height="333.084" viewBox="0 0 249.16614 312.26613"><g fill="#64b345"><path d="M35.433 190.733h4.5v60.8h29.8v3.9h-34.3v-64.7zM95.933 207.233c11.2 0 18.1 8 18.1 21.8 0 1.2 0 2.4-.2 3.5h-34c.2 11.9 7.2 20.4 17.8 20.4 5.1 0 9.1-1.7 12.7-4.2l1.8 3.3c-3.7 2.3-8 4.6-14.8 4.6-12.1 0-21.8-9.2-21.8-24.7s9.9-24.7 20.4-24.7zm14 22c0-12.1-5.4-18.3-13.9-18.3-8.1 0-15.2 7-16.2 18.3h30.1zM153.133 225.933c.2-7.2-1.9-14.9-11.1-14.9-6.4 0-11.9 3.1-15 5.5l-2-3.2c3.3-2.4 9.8-6.1 17.5-6.1 11.2 0 14.9 8.1 14.9 18.2v30.2h-3.6l-.5-6.1h-.2c-4.8 3.8-10.5 7.3-16.7 7.3-7.5 0-13.8-4-13.8-13 .1-10.5 9.6-15.5 30.5-17.9zm-16 27c5.4 0 10.2-2.7 16-7.7v-16c-19.4 2.3-25.9 6.8-25.9 14.2 0 6.9 4.5 9.5 9.9 9.5zM178.733 259.633v17.2h-4.3v-68.5h3.7l.4 5.9h.3c4.6-3.6 10.2-7.1 16-7.1 12.6 0 18.9 9.4 18.9 24.1 0 16-9.7 25.5-20.8 25.5-4.4 0-9.2-2.2-14.2-5.8v8.7zm13.9-6.7c9.5 0 16.4-8.8 16.4-21.6 0-11.6-4.1-20.2-14.9-20.2-4.7 0-9.7 2.8-15.4 7.8v28c5.4 4.3 10.3 6 13.9 6z"/></g><g fill="#64b345"><path d="M122.133 118.533l53.9-42-53.6-41.1-53.9 42z"/><path d="M48.133 99.733l74.9 57.3 74.3-57.8-15.2-11.6-60 46.6-59.7-45.7z"/></g></svg>