<svg xmlns="http://www.w3.org/2000/svg" width="340" height="220.303"><g fill="#fff"><path d="M290.857 35.708c-3.31-.12-6.45 1.05-8.85 3.3-2.399 2.25-3.814 5.299-3.914 8.6-.23 6.82 5.11 12.56 11.916 12.81 3.31.1 6.464-1.07 8.878-3.32a12.252 12.252 0 0 0 3.9-8.6c.23-6.818-5.109-12.548-11.93-12.79zm2.02 13.512c-3.03 0-5.478-1.64-5.478-3.65 0-2.03 2.448-3.66 5.479-3.66 3.03 0 5.486 1.63 5.486 3.66 0 2.01-2.457 3.65-5.486 3.65zm27.154 15.798c.805-.531 1.396-.971 1.645-1.07l.268-.419c-.68-4.28-7.059-25.029-11.884-30.019-1.329-1.359-2.394-2.699-4.55-3.96-17.454-10.17-58.862-16.309-60.802-16.59l-.33.092-.124.3s-.16 8.58-.184 9.539c-4.229-1.42-34.972-11.351-63.792-12.351-24.44-.86-60.032-4.02-107.195 24.98l-1.395.868c-22.19 13.842-37.51 30.91-45.517 50.74-2.512 6.24-5.89 20.32-2.542 33.568 1.442 5.792 4.13 11.61 7.756 16.82 8.194 11.77 21.944 19.58 36.748 20.899 20.905 1.87 36.733-7.52 42.363-25.1 3.87-12.13 0-29.928-14.84-39.007-12.07-7.391-25.048-5.71-32.577-.73-6.532 4.33-10.23 11.06-10.166 18.45.151 13.11 11.444 20.079 19.565 20.1 2.359 0 4.728-.41 7.4-1.28.95-.29 1.844-.65 2.83-1.26l.309-.18.194-.13-.065.039c1.85-1.262 2.964-3.312 2.964-5.511 0-.6-.084-1.209-.256-1.82-.96-3.32-4.239-5.329-7.638-4.71l-.46.109-.62.19-.902.31c-1.87.46-3.269.5-3.569.51-.95-.061-5.624-1.46-5.624-6.58v-.07c0-1.88.754-3.2 1.17-3.92 1.453-2.28 5.435-4.518 10.814-4.05 7.059.61 12.149 4.23 15.52 11.06 3.128 6.349 2.31 14.159-2.11 19.88-4.39 5.668-12.205 8.078-22.599 6.96-10.48-1.16-19.34-7.192-24.303-16.58-4.856-9.178-5.121-20.059-.686-28.418 10.61-20.029 30.649-19.82 41.637-17.92 16.26 2.82 34.758 17.818 41.319 35.138 1.06 2.76 1.6 4.95 2.071 6.95l.709 2.99 18.37 8.97.24.18.445-.04.081-.53c-.114-.41-.38-.789-.805-5.93-.349-4.561-1.059-17.05 5.229-23.24 2.441-2.418 6.161-4.577 9.099-5.268 12.04-2.941 26.158-.912 39.507 14.54 6.91 7.98 10.28 11.619 11.97 13.248l.59.531.694.52c.554.301 22.954 10.62 22.954 10.62l.462-.11.01-.478c-.15-.17-14.2-18.328-11.699-33.28 1.97-11.909 11.448-10.83 24.558-9.35 4.28.5 9.152 1.06 14.196 1.172 14.083.09 29.254-2.512 38.604-6.602 6.049-2.629 9.91-4.379 12.328-6.578.87-.721 1.32-1.891 1.79-3.15l.33-.832c.391-1.02.966-3.17 1.22-4.35.1-.518.16-1.067-.21-1.358l-1.294.24c-4.106 2.471-14.37 7.15-23.965 7.35-11.914.24-35.898-11.98-38.399-13.28l-.24-.279c-.59-1.44-4.19-9.95-4.96-11.749 17.27 11.38 31.594 17.668 42.56 18.638 12.206 1.088 21.72-5.573 25.784-8.422zM272.684 47.58c.175-4.73 2.155-9.12 5.614-12.34 3.46-3.231 7.975-4.9 12.708-4.75 9.76.35 17.43 8.589 17.095 18.338-.184 4.73-2.164 9.12-5.614 12.33-3.46 3.25-7.964 4.92-12.719 4.76-9.75-.36-17.41-8.58-17.084-18.338z" clip-rule="evenodd" fill-rule="evenodd"/><path d="M143.979 150.014c-7.784 0-12.065 6.58-12.065 11.13v5.84c0 6.7 5.474 10.851 10.55 10.851h17.819c2.245 0 2.715 1.47 2.715 2.71v3.769c0 .4-.081 4.02-2.715 4.02H135.98c-2.416 0-4.16 1.68-4.16 3.98v1.041c0 2.29 1.744 3.96 4.16 3.96h25.623c6.698 0 11.02-4.66 11.02-11.879v-6.301c0-6.779-4.87-9.81-9.706-9.81h-17.533c-2.64 0-3.836-1.98-3.836-3.38v-3.479c0-2.19 1.464-3.46 4.025-3.46h19.408c2.38 0 4.171-1.71 4.171-3.971v-1.04c0-2.27-1.82-3.981-4.251-3.981h-20.922zM216.841 150.014a4.16 4.16 0 0 0-4.155 4.17v29.839c0 2.39-1.95 4.31-4.31 4.31H194.83a4.31 4.31 0 0 1-4.309-4.31v-29.839c0-2.3-1.87-4.17-4.169-4.17h-1.31a4.135 4.135 0 0 0-4.17 4.17v30.968c0 7.21 5.673 12.44 13.488 12.44h14.485c7.805 0 13.475-5.228 13.475-12.44v-30.968c0-2.329-1.83-4.17-4.16-4.17h-1.319zM242.774 150.014c-7.78 0-12.074 6.58-12.074 11.13v5.84c0 6.7 5.484 10.851 10.564 10.851h17.813c2.249 0 2.72 1.47 2.72 2.71v3.769c0 .4-.08 4.02-2.72 4.02h-24.313c-2.405 0-4.16 1.68-4.16 3.98v1.041c0 2.29 1.755 3.96 4.16 3.96h25.632c6.7 0 11.041-4.66 11.041-11.879v-6.301c0-6.779-4.885-9.81-9.72-9.81h-17.533c-2.647 0-3.84-1.98-3.84-3.38v-3.479c0-2.19 1.465-3.46 4.026-3.46h19.418c2.375 0 4.159-1.71 4.159-3.971v-1.04c0-2.27-1.819-3.981-4.26-3.981h-20.913zM283.738 150.014c-2.31 0-4.054 1.712-4.054 3.981v39.358c0 2.26 1.704 3.96 3.963 3.96h31.364c2.416 0 4.16-1.67 4.16-3.96v-1.041c0-2.3-1.744-3.98-4.16-3.98h-25.686v-10.02h18.822c2.41 0 4.16-1.69 4.16-3.981v-1.04c0-2.301-1.75-3.97-4.16-3.97h-18.822V159h24.382c2.406 0 4.16-1.66 4.16-3.971v-1.04c0-2.301-1.754-3.982-4.16-3.982h-29.969zM17.13 168.734c-3.931 0-7.13 3.06-7.13 6.83v14.84c0 3.83 3.096 6.95 6.89 6.95h9.6c3.795 0 6.89-3.12 6.89-6.95v-14.84c0-3.77-3.2-6.83-7.129-6.83H17.13zm-2.077 21.08v-13.55a2.903 2.903 0 0 1 2.9-2.889h7.48c1.56 0 2.89 1.33 2.89 2.889v13.55c0 1.6-1.295 2.9-2.89 2.9h-7.535c-1.6 0-2.845-1.272-2.845-2.9zM55.11 168.563c-2.767 0-4.854.989-6.529 1.799-1.02.49-1.904.912-2.59.912-.31 0-.575-.14-.716-.37l-.638-1.22c-.16-.322-.8-.95-1.59-.95h-.95c-.912 0-1.641.82-1.641 1.82v37.639c0 1.18.931 2.11 2.11 2.11h.82c1.17 0 2.12-.94 2.12-2.11v-12.49c0-.37.241-.77.485-.77.686 0 1.57.402 2.59.87 1.675.77 3.762 1.72 6.53 1.72h.886c4.9 0 7.948-2.802 7.948-7.3v-14.368c0-4.43-3.113-7.29-7.948-7.29h-.886zm-9.601 20.962v-12.961c0-1.791 1.4-3.189 3.188-3.189h7.01c1.79 0 3.189 1.4 3.189 3.189v12.96a3.194 3.194 0 0 1-3.189 3.19h-7.01a3.193 3.193 0 0 1-3.188-3.19zM78.146 168.734c-3.93 0-7.12 3.06-7.12 6.83v14.729c0 3.82 3.1 7.06 6.759 7.06h9.904c1.224 0 2.11-.85 2.11-2.002v-.649c0-1.16-.886-1.99-2.11-1.99h-8.136c-2.28 0-3.483-1.121-3.483-3.252v-4.31h14.678c2.36 0 3.756-1.44 3.756-3.879v-5.71c0-3.77-3.195-6.83-7.11-6.83h-9.248zm-2.075 7.48c0-1.59 1.25-2.839 2.843-2.839h7.71c1.59 0 2.83 1.249 2.83 2.84v4.598H76.07l.001-4.598zM114.895 168.563c-2.76 0-4.841.989-6.521 1.79-1.045.491-1.938.921-2.668.921-.32 0-.45-.04-.7-.472l-.58-1.06c-.333-.67-.9-1.008-1.665-1.008h-.815c-.986 0-1.705.769-1.705 1.82v24.688c0 1.17.924 2.11 2.115 2.11h.816c1.17 0 2.124-.95 2.124-2.11v-18.678c0-1.75 1.43-3.189 3.18-3.189h7.013a3.196 3.196 0 0 1 3.185 3.189v18.678c0 1.17.93 2.11 2.11 2.11h.824c1.17 0 2.12-.95 2.12-2.11v-19.389c0-4.43-3.114-7.29-7.953-7.29h-.88z"/><g><path d="M326.163 187.781c2.136 0 3.837 1.737 3.837 3.91 0 2.204-1.703 3.923-3.855 3.923-2.136 0-3.873-1.719-3.873-3.923 0-2.172 1.737-3.91 3.873-3.91h.018zm-.018.607c-1.719 0-3.125 1.477-3.125 3.3 0 1.86 1.406 3.317 3.143 3.317 1.736.02 3.125-1.457 3.125-3.299 0-1.841-1.39-3.318-3.125-3.318h-.018zm-.73 5.576h-.694v-4.359c.365-.052.712-.105 1.233-.105.661 0 1.094.139 1.354.33.261.19.401.484.401.903 0 .572-.382.92-.85 1.06v.036c.382.069.642.416.73 1.06.105.678.206.938.277 1.076h-.73c-.105-.138-.209-.538-.295-1.112-.105-.554-.382-.764-.938-.764h-.486v1.875zm0-2.415h.504c.573 0 1.06-.207 1.06-.748 0-.382-.278-.764-1.06-.764-.226 0-.383.017-.504.037v1.475z"/></g></g></svg>