<svg height="32" width="32" xmlns="http://www.w3.org/2000/svg"><linearGradient id="a" gradientUnits="userSpaceOnUse" x1="4" x2="29" y1="306.033" y2="306.033"><stop offset="0" stop-color="#241f31"/><stop offset=".04" stop-color="#3d3846"/><stop offset=".08" stop-color="#241f31"/><stop offset=".92" stop-color="#241f31"/><stop offset=".96" stop-color="#3d3846"/><stop offset="1" stop-color="#241f31"/></linearGradient><g transform="translate(0 -288.533)"><rect fill="url(#a)" height="17" ry="2" width="25" x="4" y="297.533"/><rect fill="#5e5c64" height="11" ry="2" width="25" x="4" y="297.533"/><g fill="#3d3846"><rect height="4" ry="1" width="11" x="4" y="306.533"/><path d="M17 306.533l2 2-2 2h-4v-4zm-13 0h2v2H4z"/></g><path d="M8 301.533h17v2H8z" fill="#241f31"/><path d="M9 291.533h15v11H9z" fill="#f6f5f4"/><path d="M8 313.533h17v4H8z" fill="#3d3846"/><path d="M8 311.533h17v2H8z"/><path d="M10 312.533h13v4H10z" fill="#f6f5f4"/><path d="M10 292.533h13v1H10zm0 2h13v1H10zm0 2h13v1H10zm0 2h13v1H10zm0 2h13v1H10z" fill="#deddda"/><rect fill="#26a269" height="2" ry="0" width="3" x="6" y="307.533"/><path d="M7 309.533l1-2H6v2z" fill="#fff" opacity=".2"/><rect fill="#9a9996" height="1" ry=".5" width="1" x="10" y="307.533"/><rect fill="#9a9996" height="1" ry=".5" width="1" x="12" y="307.533"/><path d="M10 312.533h13v1H10z" fill="#deddda"/><path d="M17 306.533v4l2-2z" fill="#77767b"/></g></svg>