<?xml version="1.0" encoding="UTF-8"?>
<svg version="1.0" viewBox="0 0 128 128" xmlns="http://www.w3.org/2000/svg">
<rect transform="scale(-1,1)" x="-112" y="60" width="96" height="52" ry="8" fill="#c01c28"/>
<rect transform="scale(-1,1)" x="-32" y="104" width="16" height="8" ry="0" fill="#c01c28"/>
<rect transform="scale(-1,1)" x="-112" y="56" width="88" height="52" ry="8" fill="#f6f5f4"/>
<rect transform="scale(-1,1)" x="-32" y="100" width="8" height="8" ry="0" fill="#f6f5f4"/>
<rect transform="scale(-1,1)" x="-24" y="16" width="8" height="8" fill="#e01b24"/>
<rect transform="scale(-1,1)" x="-112" y="52" width="96" height="48" ry="8" fill="#c01c28"/>
<rect transform="scale(-1,1)" x="-32" y="96" width="16" height="4" ry="0" fill="#c01c28"/>
<rect transform="scale(-1,1)" x="-112" y="16" width="96" height="80" ry="8" fill="#e01b24"/>
<rect transform="scale(-1,1)" x="-32" y="92" width="16" height="4" ry="0" fill="#e01b24"/>
<path d="m55 36v6h15c3.324 0 6 2.676 6 6v6h-21c-6.648 0-12 5.352-12 12s5.352 12 12 12h30v-6h-30c-3.324 0-6-2.676-6-6s2.676-6 6-6h21v18h6v-30c0-6.648-5.352-12-12-12z" fill="#fff"/>
<rect x="20" y="16" width="4" height="80" ry="0" fill="#c01c28"/>
</svg>
