<?xml version="1.0" encoding="UTF-8"?>
<svg version="1" viewBox="0 0 128 128" xmlns="http://www.w3.org/2000/svg" xmlns:xlink="http://www.w3.org/1999/xlink">
<defs>
<linearGradient id="e" x1="16" x2="16" y1="7.0449" y2="24.957" gradientTransform="scale(4)" gradientUnits="userSpaceOnUse">
<stop stop-color="#fff" offset="0"/>
<stop stop-color="#f6f5f4" offset="1"/>
</linearGradient>
<linearGradient id="f" x1="16" x2="16" y1="7" y2="24.957" gradientTransform="scale(4)" gradientUnits="userSpaceOnUse">
<stop stop-color="#ff7800" offset="0"/>
<stop stop-color="#c64600" offset="1"/>
</linearGradient>
<linearGradient id="g" x1="6.25" x2="26.25" y1="14.5" y2="14.5" gradientTransform="scale(4)" gradientUnits="userSpaceOnUse">
<stop stop-color="#deddda" offset="0"/>
<stop stop-color="#f6f5f4" offset="1"/>
</linearGradient>
<linearGradient id="d" x1="24.001" x2="104" y1="68.085" y2="68.085" gradientUnits="userSpaceOnUse">
<stop stop-color="#c0bfbc" offset="0"/>
<stop stop-color="#deddda" offset=".07499"/>
<stop stop-color="#c0bfbc" offset=".49138"/>
<stop stop-color="#c0bfbc" offset="1"/>
</linearGradient>
</defs>
<rect x="12" y="16" width="104" height="104" ry="0" fill="#cdab8f"/>
<rect x="12" y="12" width="104" height="104" ry="0" fill="#e1ccbb"/>
<rect x="12" y="12" width="48" height="16" ry="0" fill="#c01c28"/>
<rect x="68" y="12" width="48" height="16" ry="0" fill="#c01c28"/>
<rect x="40" y="38" width="48" height="18" ry="0" fill="#a51d2d"/>
<rect x="96" y="36" width="20" height="20" ry="0" fill="#c01c28"/>
<rect x="12" y="36" width="20" height="20" ry="0" fill="#c01c28"/>
<rect x="12" y="8" width="48" height="16" ry="0" fill="#ed333b"/>
<rect x="68" y="8" width="48" height="16" ry="0" fill="#ed333b"/>
<rect x="40" y="36" width="48" height="16" ry="0" fill="#e01b24"/>
<rect x="96" y="36" width="20" height="16" ry="0" fill="#ed333b"/>
<rect x="12" y="36" width="20" height="16" ry="0" fill="#ed333b"/>
<rect x="12" y="68" width="48" height="16" ry="0" fill="#c01c28"/>
<rect x="68" y="68" width="48" height="16" ry="0" fill="#c01c28"/>
<rect x="40" y="94" width="48" height="18" ry="0" fill="#c01c28"/>
<rect x="96" y="96" width="20" height="16" ry="0" fill="#c01c28"/>
<rect x="12" y="96" width="20" height="16" ry="0" fill="#c01c28"/>
<rect x="12" y="64" width="48" height="16" ry="0" fill="#ed333b"/>
<rect x="68" y="64" width="48" height="16" ry="0" fill="#ed333b"/>
<rect x="40" y="92" width="48" height="16" ry="0" fill="#ed333b"/>
<path d="m64.001 27.999c-8 6-28.297 12.18-40 8 1.3086 31.923 6.5884 61.308 40 72.172 33.412-10.864 38.692-40.248 40-72.172-11.703 4.1796-32-2-40-8z" fill="url(#d)"/>
<rect x="96" y="92" width="20" height="16" ry="0" fill="#ed333b"/>
<path d="m64 24l-40 8c1.3086 31.923 6.5884 61.308 40 72.172 33.412-10.864 38.692-40.248 40-72.172l-40-8z" fill="url(#g)"/>
<rect x="12" y="92" width="20" height="16" ry="0" fill="#ed333b"/>
<path d="m64 28.18c-35.742 8.0546 0 0-35.742 8.0546 0.79232 14.03 2.4465 27.304 7.2188 38.008 5.1548 11.562 13.565 20.381 28.524 25.586 14.959-5.2048 23.368-14.024 28.524-25.586 4.7724-10.704 6.4264-23.978 7.2188-38.008-5.8016 0.81676-11.97 0.57616-18.008-0.84376-6.928-1.6292-13.054-4.244-17.734-7.2108z" fill="url(#e)"/>
<path d="m64 28v71.648c14.959-5.2048 23.368-14.024 28.524-25.586 4.7724-10.704 6.4264-23.978 7.2188-38.008-35.743-7.874 8e-4 0.18056-35.742-8.0546z" fill="url(#f)"/>
</svg>
