<?xml version="1.0" encoding="UTF-8"?>
<svg version="1.1" viewBox="0 0 128 128" xmlns="http://www.w3.org/2000/svg">
<g stroke-width=".5">
<path d="M16 20L4 40l12 4zm96 0l12 20-12 4zm-96 0h96v88H16z" fill="#cdab8f"/>
<path d="M16 20h96v80H16z" fill="#dec7b4"/>
<path d="M44 20h68v80H44z" fill="#73ba25"/>
<path d="M44 100h68v8H44z" fill="#54881b"/>
<path d="M16 20l-4 32h52V20z" fill="#dec7b4"/>
</g>
<g stroke-width=".5">
<path d="m42 52h74l-4-32h-68z" fill="#73ba25"/>
<path d="M12 52h52v4H12z" fill="#cdab8f"/>
<path d="m42 52h74v4h-74z" fill="#54881b"/>
</g>
<path d="m68 70 16 16 16-16" fill="none" stroke="#cdab8f" stroke-width="8"/>
<path d="m68 72 16 16 16-16" fill="none" stroke="#dec7b4" stroke-width="8"/>
<path d="m84 82v-26" fill="none" stroke="#cdab8f" stroke-width="8"/>
<path d="m84 84v-28" fill="none" stroke="#dec7b4" stroke-width="8"/>
</svg>
