<svg height="128" width="128" xmlns="http://www.w3.org/2000/svg"><radialGradient id="b" cx="64" cy="55.96" gradientUnits="userSpaceOnUse" r="24"><stop offset="0" stop-color="#f8e45c"/><stop offset="1" stop-color="#f6d32d"/></radialGradient><linearGradient id="a" gradientUnits="userSpaceOnUse" x1="24" x2="104" y1="119.96" y2="119.96"><stop offset="0" stop-color="#5e5c64"/><stop offset=".05" stop-color="#9a9996"/><stop offset=".1" stop-color="#5e5c64"/><stop offset=".9" stop-color="#5e5c64"/><stop offset=".95" stop-color="#9a9996"/><stop offset="1" stop-color="#5e5c64"/></linearGradient><g stroke-width="4"><rect fill="url(#a)" height="104" rx="8" width="80" x="24" y="16"/><rect fill="#9a9996" height="104" rx="8" width="80" x="24" y="8"/><rect fill="#5e5c64" height="16" ry="4" width="16" x="76" y="84"/><path d="M64 40a32 32 0 0 0-32 32 32 32 0 0 0 32 32 32 32 0 0 0 32-32 32 32 0 0 0-32-32z" fill="#5e5c64"/><rect fill="#3d3846" height="16" ry="4" width="16" x="72" y="80"/><g fill="#5e5c64"><rect height="16" ry="4" width="16" x="36" y="44"/><rect height="16" ry="4" width="16" x="76" y="44"/><rect height="16" ry="4" width="16" x="36" y="84"/></g><g fill="#3d3846"><circle cx="64" cy="72" r="28"/><rect height="16" ry="4" width="16" x="40" y="48"/><rect height="16" ry="4" width="16" x="72" y="48"/><rect height="16" ry="4" width="16" x="40" y="80"/></g><path d="M64 48a24 24 0 0 0-24 24 24 24 0 0 0 24 24 24 24 0 0 0 24-24 24 24 0 0 0-24-24z" fill="url(#b)"/><path d="M64 60a12 12 0 0 0-12 12 12 12 0 0 0 12 12 12 12 0 0 0 12-12 12 12 0 0 0-12-12z" fill="#3d3846"/><path d="M64 48a24 24 0 0 0-24 24 24 24 0 0 0 .1 2.008A24 24 0 0 1 64 52a24 24 0 0 1 23.9 21.992A24 24 0 0 0 88 72a24 24 0 0 0-24-24z" fill="#e5a50a"/><path d="M64 12a12 12 0 0 0-12 12 12 12 0 0 0 12 12 12 12 0 0 0 12-12 12 12 0 0 0-12-12z" fill="#77767b"/><path d="M64 16a8 8 0 0 0-8 8 8 8 0 0 0 8 8 8 8 0 0 0 8-8 8 8 0 0 0-8-8z" fill="#5e5c64"/><path d="M64 16a8 8 0 0 0-8 8 8 8 0 0 0 .256 1.984A8 8 0 0 1 64 20a8 8 0 0 1 7.744 6.016A8 8 0 0 0 72 24a8 8 0 0 0-8-8z" fill="#3d3846"/></g></svg>