<svg width="16" height="16" version="1.1" xmlns="http://www.w3.org/2000/svg">
 <path d="m2.3176 0.46569 0.78875 2.6405 1.2652 1.5096c-0.46603 0.0814-0.859 0.24621-1.2143 0.45501-0.4472 0.39283-0.69505 0.88613-0.89054 1.4057l-1.4221 1.1059c-0.07609-0.0651-0.13202-0.0117-0.19322 0.0132-0.21732 0.12772-0.45427 0.23811-0.58107 0.44179-0.23106 0.59842 0.16038 0.91954 0.40875 1.2902 0.15885 0.17164 0.51557 0.39115 0.85661 0.41411l2.8166-1.378 1.5382-0.28679c-0.26929 1.8737-0.24471 3.9124-0.29768 5.9072l-0.81357 1.3663-0.19446 0.15517 4.8838-0.37607 1.8998 0.87054 0.59429-0.25911 1.2143-0.0657-0.25857-0.33786 0.91679-0.0395-0.05089 0.48125 0.8134-0.46822h0.36179l0.21946 0.19464 0.40089-0.28535 0.62018-0.0263c-0.35733-2.0181-0.58409-4.058-0.78875-6.1018-0.03969-0.52789-0.08198-1.0511-0.21929-1.4057-0.32707-0.69227-0.75088-1.241-1.2523-1.6779-0.62951-0.52072-1.2793-0.99242-2.0032-1.2755-0.64168-0.24264-1.283-0.0746-1.9246 0.0525-0.71854 0.16247-1.4092 0.40927-2.0802 0.71536 0.13342-0.31235 0.35838-0.61109 0.65018-0.76393 0.398-0.20837 0.73964-0.30325 1.1584-0.41965 0.37541-0.14049 0.61229-0.36916 0.86572-0.58643 0.69764-0.83889 1.2973-1.7057 1.8855-2.5761-1.0594 0.24406-2.119 0.65606-3.1784 1.0546-0.67136 0.25051-1.2735 0.57043-1.7823 1.0664l-1.0852 1.0796c-0.24382 0.18806-0.3671-5e-3 -0.50411-0.15518l-0.80036-1.198zm0.59018 1.0296c0.38381 0.41106 0.76521 0.86436 1.1882 1.2572 0.36758 0.32896 0.61938 0.65872 0.85929 0.98768 0.17982 0.29488 0.38468 0.58028 0.63732 0.85071 0.15499 0.13823 0.38777 0.30991 0.72464 0.12893 0.2451-0.12983 0.43183-0.31313 0.60464-0.50768 0.40485-0.44665 0.80234-0.87794 1.2079-1.1559 1.0833-0.63909 2.1723-0.95852 3.262-1.3584-0.39998 0.68055-1.1519 1.6552-1.6232 1.9607-0.41684 0.23146-0.8574 0.40611-1.2966 0.58125-0.48817 0.18811-0.72788 0.44899-0.94536 0.71661-0.24067 0.38593-0.3868 0.74459-0.2625 1.0272 0.07736 0.16898 0.18121 0.33851 0.31589 0.5075 0.20546 0.23471 0.42198 0.45771 0.68429 0.63518 0.16054 0.0835 0.31459 0.0392 0.46357-0.013-0.21561 0.0169-0.43534-0.016-0.5575-0.13553-0.38899-0.3289-0.61745-0.60593-0.79-0.88894 0.73237-0.35138 1.4067-0.58405 2.0593-0.77464 0.73727-0.24093 1.4144-0.34851 2.0802-0.26946 1.2183 0.29025 2.0765 1.3259 2.4966 1.8107 0.36074 0.46046 0.69489 1.1639 0.70518 1.5623 0.09785 2.0909 0.46212 4.1816 0.73786 6.2725l-0.28857 0.0132-0.14768 0.42607-0.10054-0.33803-0.20768 0.0409v-0.39982l-0.06786 0.39321-0.22072-0.0684-0.295 0.26428 0.03268-0.32482-0.14107-7e-3 0.06786-0.29715-0.15411 0.24322-0.39696 0.0868 0.60464-0.79018 0.04054-0.0527-0.18822 0.13411-0.25446-1.4807-0.75214-1.3584 0.47-0.55483s-0.42964 0.43329-0.42964 0.40626c0-0.027 0.32911-0.82447 0.32911-0.82447l-0.05482-0.54179-0.03268 0.53518-0.38268 0.86393-0.59143 0.21697 0.01429-0.12875-0.75215-0.56036-0.37607-0.82447 0.10054-0.80482-0.19446 0.68911-0.18161-0.83768 0.04054 0.97321 0.51714 0.73625-0.47661-0.48642 0.50393 0.67589 0.65036 0.51411-0.56411 3.36 0.48322 0.69553-0.26786 0.0539-0.48964-0.59446 0.28072 0.6825-0.41518-0.0275-0.26893-0.655 0.03393 0.52732-1.1282-0.38518 0.85-3.448s-0.14148 0.18977-0.14482 0.17625c-0.0034-0.0135-0.815-0.99679-0.815-0.99679l-0.34982-0.11572 0.28857 0.15911 0.35 0.41286s-2.2757-0.778-2.2891-0.76786c-0.01342 0.0101-0.63857 0.71-0.63857 0.71s0.57714 3.8087 0.57714 3.7952c0-0.0135-1.8725 0.11179-1.8725 0.11179l0.28589-0.61536-0.38911 0.51411-0.36572 0.0132 0.53679-0.8009 0.0064-3.1732 0.30822-3.2822c0.22751-0.068 0.42042-0.20136 0.56411-0.42607l0.17107-0.36429c-0.21246 0.32738-0.46443 0.58851-0.80822 0.69947-0.5538 0.17255-1.3197 0.21282-1.8098 0.33929-0.48101 0.11246-2.2982 1.0211-2.31 1.0666-0.02195 0.0845 0.0058-0.65604-0.11893-0.6325 0.02108 0.384-0.04916 0.66448-0.22196 0.82447-0.19856 0.11725-0.4051 0.16914-0.63072 0.0684-0.24153-0.16995-0.45344-0.39584-0.50143-0.65089-0.0262-0.16431-0.04057-0.33984 0.08482-0.44465 0.13956-0.11096 0.2911-0.11257 0.44411-0.088 0.21894 0.0568 0.4025 0.16685 0.59018 0.27089-0.17427-0.16024-0.36526-0.29475-0.57714-0.39839l1.0668-0.8325c0.2598-0.20561 0.52578-0.40821 0.65161-0.66143l0.38911-0.69036c0.12741-0.25219 0.35787-0.37739 0.59679-0.49322 0.42529-0.16204 0.87673-0.29794 1.3829-0.37857l-1.563-1.7845zm6.8934 1.0784-1.6191 1.582 1.3109-0.64303-0.65161 0.22607zm-4.5534 2.4327c-0.14042 3e-3 -0.28206 0.02-0.41518 0.0487-0.30411 0.10413-0.39884 0.19977-0.56804 0.32875 0.46086-0.23633 0.70315-0.32803 1.2339-0.36821-0.08218-9e-3 -0.16646-0.011-0.25072-9e-3zm0.14768 0.7325c-0.08736-2e-3 -0.1835 0.01-0.28607 0.0407-0.25805 0.0785-0.4529 0.40905-0.42304 0.43268 0.24885-0.37964 0.568-0.51038 1.1491-0.35375 0 0-0.17793-0.11497-0.44-0.11965zm-0.04446 0.19465c-0.09021 4e-3 -0.17862 0.0285-0.26911 0.0789-0.12652 0.0838-0.21 0.16184-0.27804 0.2616 0.08107-0.0706 0.16696-0.13306 0.26768-0.17089-0.09053 0.11686-0.03394 0.28041-0.01179 0.32482 0.07429 0.10872 0.2041 0.13432 0.30554 0.11964 0.10132-0.0147 0.2529-0.11936 0.23375-0.29589-0.02301-0.13191-0.0829-0.23284-0.24286-0.24982 0.14097-0.0368 0.25828 0.0417 0.37089 0.14196-0.0531-0.0771-0.10301-0.15794-0.21161-0.19589-0.0564-0.0116-0.11034-0.0167-0.16446-0.0145zm-4.2897 2.3091 0.05875 0.29732c0.01414 0.0716-0.01749 0.22339-0.05214 0.27607-0.04326 0.0658 0.09137 0.1465 0.16322 0.14733 0.08487 9.2e-4 0.17187 6e-3 0.16322-0.19197-0.06472-0.21303-0.19742-0.36765-0.33304-0.52875zm-0.4975 0.0488c0.08649 0.27734-0.04281 0.25567 0.17232 0.45893 0.07383 0.0143 0.06625-0.0785 0.05875-0.11572-0.02033-0.15652-0.12469-0.23073-0.23107-0.34321zm7.2591 2.6038 0.88536 0.30232 0.79 1.4466-0.76268 1.4136-0.73 0.41822s-0.51689-3.2647-0.48964-3.2784c0.02724-0.0137 0.30696-0.30232 0.30696-0.30232zm4.9241 0.72714 0.66089 1.2912 0.14232 1.1836-0.92714 1.1179s-0.64074-0.68344-0.62161-0.72197c0.01913-0.0385 0.4975-2.8129 0.4975-2.8129z" fill="#fff" stroke-width=".091429"/>
</svg>
