<svg height="32" width="32" xmlns="http://www.w3.org/2000/svg"><linearGradient id="a" gradientUnits="userSpaceOnUse" x1="6" x2="28" y1="306.533" y2="306.533"><stop offset="0" stop-color="#241f31"/><stop offset=".045" stop-color="#3d3846"/><stop offset=".091" stop-color="#241f31"/><stop offset=".909" stop-color="#241f31"/><stop offset=".955" stop-color="#3d3846"/><stop offset="1" stop-color="#241f31"/></linearGradient><g transform="translate(-1 -288.533)"><rect fill="url(#a)" height="24" ry="2" width="22" x="6" y="294.533"/><rect fill="#5e5c64" height="21" ry="2" width="22" x="6" y="293.533"/><path d="M21 291.533l-1 1H6c-.554 0-1 .446-1 1v2h16v-1h9v-2c0-.554-.446-1-1-1z" fill="#5e5c64"/><path d="M21 293.533l-1 1H6c-.554 0-1 .446-1 1l1 1h22l2-2c0-.554-.446-1-1-1z" fill="#241f31"/><path d="M7 297.533h20v14H7z" fill="#3d3846"/><path d="M8 298.533h18v12H8z" fill="#241f31"/><path d="M8 298.533h12l-3 12H8z" fill="#fff" opacity=".2"/><path d="M21 298.533h1v12h-1z" fill="#e01b24"/><path d="M9 299.533h16v10H9z" fill="#f6f5f4"/><path d="M10 300.533h1v8h-1zm2 0h1v8h-1zm2 0h1v8h-1zm2 0h1v8h-1zm2 0h1v8h-1zm2 0h1v8h-1zm2 0h1v8h-1z" fill="#deddda"/><path d="M21 299.533h1v10h-1z" fill="#fccdc8"/></g><g fill="#3d3846"><rect height="4" ry="1" width="11" x="5" y="24"/><path d="M18 24l2 2-2 2h-4v-4zM5 24h2v2H5z"/></g><rect fill="#26a269" height="2" ry="0" width="3" x="7" y="25"/><path d="M8 27l1-2H7v2z" fill="#fff" opacity=".2"/><rect fill="#9a9996" height="1" ry=".5" width="1" x="11" y="25"/><rect fill="#9a9996" height="1" ry=".5" width="1" x="13" y="25"/><path d="M18 24v4l2-2z" fill="#77767b"/></svg>