<svg version="1.1" viewBox="0 0 256 256" xmlns="http://www.w3.org/2000/svg">
 <g fill="#000">
  <path d="m64.094 176.32 49.878-28.056v15.587l-31.07 16.948"/>
  <path d="m64.094 166.97 39.877-21.339 10.001 2.6349-49.878 28.056" opacity=".3"/>
  <path d="m54.742 179.44 9.3521-3.1174v-84.948l-9.3521-2.3382"/>
  <path d="m129.56 191.91-65.465-15.587-9.3521 3.1174 74.817 18.704" opacity=".3"/>
  <path d="m42.271 73.445v115.34l99.756 24.939 0.10352-44.131-12.572-2.5664v31.109l-74.816-18.703v-90.404l49.205 12.301v-13.328zm81.326 19.199-0.0723 13.584 6.0332 1.5078v38.895l12.617 3.0039 0.12305-52.576z" opacity=".6"/>
  <path d="m213.73 60.977-71.504 36.088-0.0898 52.561 9.2461 2.2012v-44.09l49.877-24.938v87.285l-49.877 24.939v-23.539l-9.2793-1.8945-0.0742 44.139 71.701-34.291z"/>
  <path d="m62.044 72.432 51.927-23.925v12.47l-33.13 15.839"/>
  <path d="m113.93 42.312-71.699 31.174 61.713 14.553v-6.5176l-41.889-9.0547 51.875-23.92 74.818 15.586-49.879 24.939-15.24-3.2949-0.0352 6.8945 18.627 4.3926 71.467-36.049z" opacity=".3"/>
  <path d="m113.97 60.976 9.7773 2.1727-0.42517 81.997-9.3521 3.1174"/>
  <path d="m188.79 64.094-74.817-15.587v12.47l56.113 12.47" opacity=".6"/>
  <path d="m103.95 145.72v-80.274l10.025-4.4685v87.287" opacity=".6"/>
  <path d="m113.97 148.26v15.587l57.56 11.746 17.258-8.6288" opacity=".6"/>
  <path d="m188.79 160.73-65.465-15.587-9.3521 3.1174 74.817 18.704" opacity=".3"/>
  <path d="m201.26 82.798-12.47 6.2348v77.935l12.47 3.1174" opacity=".6"/>
  <path d="m201.26 170.08-49.878 24.939v-9.3522l37.409-18.704z" opacity=".3"/>
 </g>
</svg>
