<?xml version="1.0" encoding="UTF-8" standalone="no"?>
<svg
   xmlns:dc="http://purl.org/dc/elements/1.1/"
   xmlns:cc="http://creativecommons.org/ns#"
   xmlns:rdf="http://www.w3.org/1999/02/22-rdf-syntax-ns#"
   xmlns:svg="http://www.w3.org/2000/svg"
   xmlns="http://www.w3.org/2000/svg"
   id="svg4"
   viewBox="0 0 256 256"
   version="1.1">
  <metadata
     id="metadata10">
    <rdf:RDF>
      <cc:Work
         rdf:about="">
        <dc:format>image/svg+xml</dc:format>
        <dc:type
           rdf:resource="http://purl.org/dc/dcmitype/StillImage" />
        <dc:title></dc:title>
      </cc:Work>
    </rdf:RDF>
  </metadata>
  <defs
     id="defs8" />
  <g
     transform="matrix(0.29265386,0,0,0.29265389,24.347057,14.994905)"
     id="g1085">
    <path
       id="path2207"
       style="fill:#ffffff;fill-opacity:1;fill-rule:evenodd;stroke:none;stroke-width:1.47053277px;stroke-linecap:butt;stroke-linejoin:miter;stroke-opacity:1"
       d="m 135.81442,551.24677 170.43379,-95.86901 v 53.26057 L 200.0802,566.54815" />
    <path
       id="path3954"
       style="fill:#ffffff;fill-opacity:1;fill-rule:evenodd;stroke:none;stroke-width:1.47053277px;stroke-linecap:butt;stroke-linejoin:miter;stroke-opacity:1;opacity:0.3"
       d="m 135.81442,519.29044 136.26042,-72.91605 34.17337,9.00337 -170.43379,95.86901" />
    <path
       id="path1331"
       style="fill:#ffffff;fill-opacity:1;fill-rule:evenodd;stroke:none;stroke-width:1.47053277px;stroke-linecap:butt;stroke-linejoin:miter;stroke-opacity:1"
       d="m 103.85809,561.89889 31.95633,-10.65212 0,-290.26938 -31.95633,-7.98974" />
    <path
       id="path2209"
       style="fill:#ffffff;fill-opacity:1;fill-rule:evenodd;stroke:none;stroke-width:1.47053277px;stroke-linecap:butt;stroke-linejoin:miter;stroke-opacity:1;opacity:0.3"
       d="m 359.50877,604.50734 -223.69435,-53.26057 -31.95633,10.65212 255.65068,63.91267" />
    <path
       style="opacity:0.6;fill:#ffffff;fill-opacity:1;fill-rule:evenodd;stroke:none;stroke-width:0.43035713px;stroke-linecap:butt;stroke-linejoin:miter;stroke-opacity:1"
       d="M 42.271484 73.445312 L 42.271484 188.78906 L 142.02734 213.72852 L 142.13086 169.59766 L 129.55859 167.03125 L 129.55859 198.14062 L 54.742188 179.4375 L 54.742188 89.033203 L 103.94727 101.33398 L 103.94727 88.005859 L 42.271484 73.445312 z M 123.59766 92.644531 L 123.52539 106.22852 L 129.55859 107.73633 L 129.55859 146.63086 L 142.17578 149.63477 L 142.29883 97.058594 L 123.59766 92.644531 z "
       transform="matrix(3.417006,0,0,3.4170057,-83.19404,-51.237675)"
       id="path4030" />
    <path
       style="fill:#ffffff;fill-opacity:1;fill-rule:evenodd;stroke:none;stroke-width:0.43035701px;stroke-linecap:butt;stroke-linejoin:miter;stroke-opacity:1"
       d="M 213.72852 60.976562 L 142.22461 97.064453 L 142.13477 149.625 L 151.38086 151.82617 L 151.38086 107.73633 L 201.25781 82.798828 L 201.25781 170.08398 L 151.38086 195.02344 L 151.38086 171.48438 L 142.10156 169.58984 L 142.02734 213.72852 L 213.72852 179.4375 L 213.72852 60.976562 z "
       transform="matrix(3.417006,0,0,3.4170057,-83.19404,-51.237675)"
       id="path4037" />
    <path
       id="path5814"
       style="fill:#ffffff;fill-opacity:1;fill-rule:evenodd;stroke:none;stroke-width:1.47053277px;stroke-linecap:butt;stroke-linejoin:miter;stroke-opacity:1"
       d="M 128.81174,196.26333 306.24821,114.5102 v 42.60844 L 193.04363,211.24 v 0" />
    <path
       style="opacity:0.3;fill:#ffffff;fill-opacity:1;fill-rule:evenodd;stroke:none;stroke-width:0.43035701px;stroke-linecap:butt;stroke-linejoin:miter;stroke-opacity:1"
       d="M 113.93359 42.3125 L 42.234375 73.486328 L 103.94727 88.039062 L 103.94727 81.521484 L 62.058594 72.466797 L 113.93359 48.546875 L 188.75195 64.132812 L 138.87305 89.072266 L 123.63281 85.777344 L 123.59766 92.671875 L 142.22461 97.064453 L 213.69141 61.015625 L 113.93359 42.3125 z "
       transform="matrix(3.417006,0,0,3.4170057,-83.19404,-51.237675)"
       id="path5803" />
    <path
       id="path3964"
       style="fill:#ffffff;fill-opacity:1;fill-rule:evenodd;stroke:none;stroke-width:1.47053277px;stroke-linecap:butt;stroke-linejoin:miter;stroke-opacity:1"
       d="m 306.24821,157.11864 33.40913,7.42425 -1.45279,280.18276 -31.95634,10.65211 v 0" />
    <path
       id="path5816"
       style="fill:#ffffff;fill-opacity:1;fill-rule:evenodd;stroke:none;stroke-width:1.47053277px;stroke-linecap:butt;stroke-linejoin:miter;stroke-opacity:1;opacity:0.6"
       d="M 561.89889,167.77076 306.24821,114.5102 v 42.60844 l 191.73801,42.60844" />
    <path
       id="path1325"
       style="fill:#ffffff;fill-opacity:1;fill-rule:evenodd;stroke:none;stroke-width:1.47053277px;stroke-linecap:butt;stroke-linejoin:miter;stroke-opacity:1;opacity:0.6"
       d="M 271.99153,446.68501 V 172.38769 l 34.25668,-15.26905 v 298.25912" />
    <path
       id="path4846"
       style="opacity:0.6;fill:#ffffff;fill-opacity:1;fill-rule:evenodd;stroke:none;stroke-width:1.47053277px;stroke-linecap:butt;stroke-linejoin:miter;stroke-opacity:1"
       d="m 306.24821,455.37776 v 53.26057 l 196.6816,40.13665 58.96908,-29.48454" />
    <path
       id="path4842"
       style="fill:#ffffff;fill-opacity:1;fill-rule:evenodd;stroke:none;stroke-width:1.47053277px;stroke-linecap:butt;stroke-linejoin:miter;stroke-opacity:1;opacity:0.3"
       d="m 561.89889,497.98621 -223.69434,-53.26056 -31.95634,10.65211 255.65068,63.91268" />
    <path
       id="path2205"
       style="fill:#ffffff;fill-opacity:1;fill-rule:evenodd;stroke:none;stroke-width:1.47053277px;stroke-linecap:butt;stroke-linejoin:miter;stroke-opacity:1;opacity:0.6"
       d="m 604.50734,231.68342 -42.60845,21.30423 v 266.30279 l 42.60845,10.65211" />
    <path
       id="path4848"
       style="fill:#ffffff;fill-opacity:1;fill-rule:evenodd;stroke:none;stroke-width:1.47053277px;stroke-linecap:butt;stroke-linejoin:miter;stroke-opacity:1;opacity:0.3"
       d="M 604.50734,529.94255 434.07355,615.15944 V 583.20311 L 561.89889,519.29044 Z" />
  </g>
</svg>
