<svg id="SVGRoot" width="16px" height="16px" version="1.1" viewBox="0 0 16 16" xmlns="http://www.w3.org/2000/svg">
 <path d="m1 0c-0.554 0-1 0.446-1 1v2c0 0.554 0.446 1 1 1h14c0.554 0 1-0.446 1-1v-2c0-0.554-0.446-1-1-1h-14zm1 1c0.554 0 1 0.446 1 1s-0.446 1-1 1-1-0.446-1-1 0.446-1 1-1zm4 0h4v2h-4v-2zm5 0h4v2h-4v-2zm-10 5c-0.554 0-1 0.446-1 1v2c0 0.554 0.446 1 1 1h14c0.554 0 1-0.446 1-1v-2c0-0.554-0.446-1-1-1h-14zm1 1c0.554 0 1 0.446 1 1s-0.446 1-1 1-1-0.446-1-1 0.446-1 1-1zm4 0h4v2h-4v-2zm5 0h4v2h-4v-2zm-10 5c-0.554 0-1 0.446-1 1v2c0 0.554 0.446 1 1 1h14c0.554 0 1-0.446 1-1v-2c0-0.554-0.446-1-1-1h-14zm1 1c0.554 0 1 0.446 1 1s-0.446 1-1 1-1-0.446-1-1 0.446-1 1-1zm4 0h4v2h-4v-2zm5 0h4v2h-4v-2z" fill="#fff"/>
</svg>
