<svg xmlns="http://www.w3.org/2000/svg" viewBox="0 0 256 256">
  <path fill="#000" d="m194.99 69.339c-11.512 0-22.656 3.3066-32.576 8.94-9.6748 5.511-18.125 12.981-25.595 21.187-2.9392 3.1841-5.7559 6.6132-8.5726 10.042-2.6942 3.3066-5.1436 6.7356-7.7153 10.165-1.2246 1.7145-2.5718 3.5515-3.7964 5.266-2.5718 3.5515-5.1436 6.9806-7.9603 10.165-2.6942 2.9392-5.511 5.7559-8.3277 8.5726-7.103 6.9805-14.696 13.471-23.146 18.86-6.6132 4.1638-14.451 8.2052-22.534 8.2052-21.676 0-41.026-17.145-41.026-43.23 0-26.085 18.615-40.291 41.026-40.291 12.981 0 24.371 5.511 35.515 15.063l-6.0008 6.1233 14.573 3.674 14.573 3.674-4.0414-14.451-4.0414-14.451-6.4907 6.7356c-11.389-10.165-25.473-18.37-43.23-18.37-29.024 0-52.905 20.942-52.905 52.905 0 30.616 23.881 52.905 50.701 52.905 11.144 0 21.921-3.3066 31.351-8.94 8.5726-5.0211 16.043-11.634 22.901-18.86 2.3268-2.4493 4.5312-4.8986 6.7356-7.348 2.9392-3.1841 5.6334-6.3682 8.0827-10.042 1.1022-1.592 2.0819-3.1841 3.1841-4.7762 1.9594-2.9392 3.7964-5.8784 5.8784-8.6951 3.9189-5.266 7.9603-10.41 12.247-15.308 7.3479-8.2052 15.676-15.798 25.35-20.942 7.7153-4.1638 16.288-6.3682 25.105-6.3682 30.616 0 47.762 21.309 47.762 48.496 0 25.35-16.41 46.292-44.7 46.292-16.165 0-30.372-4.4088-45.312-17.268l6.9806-8.4501-14.818-2.4493-14.818-2.4493 5.266 14.084 5.266 14.084 5.8784-7.103c14.451 13.104 30.249 21.676 50.823 21.676 34.29 0 56.702-26.085 56.702-58.906-0.12246-34.535-23.268-58.416-58.294-58.416z" />
</svg>
