<?xml version="1.0" encoding="UTF-8" standalone="no"?>
<!-- Created with Inkscape (http://www.inkscape.org/) -->

<svg
   xmlns:dc="http://purl.org/dc/elements/1.1/"
   xmlns:cc="http://creativecommons.org/ns#"
   xmlns:rdf="http://www.w3.org/1999/02/22-rdf-syntax-ns#"
   xmlns:svg="http://www.w3.org/2000/svg"
   xmlns="http://www.w3.org/2000/svg"
   xmlns:sodipodi="http://sodipodi.sourceforge.net/DTD/sodipodi-0.dtd"
   xmlns:inkscape="http://www.inkscape.org/namespaces/inkscape"
   width="256"
   height="256"
   viewBox="0 0 256 256"
   version="1.1"
   id="svg8"
   inkscape:version="0.92.1 r"
   sodipodi:docname="tumbleweed.svg">
  <defs
     id="defs2" />
  <sodipodi:namedview
     id="base"
     pagecolor="#ffffff"
     bordercolor="#666666"
     borderopacity="1.0"
     inkscape:pageopacity="0.0"
     inkscape:pageshadow="2"
     inkscape:zoom="0.98994949"
     inkscape:cx="101.40069"
     inkscape:cy="61.308495"
     inkscape:document-units="px"
     inkscape:current-layer="layer1"
     showgrid="false"
     units="px"
     showguides="true"
     inkscape:guide-bbox="true"
     inkscape:window-width="1280"
     inkscape:window-height="995"
     inkscape:window-x="1920"
     inkscape:window-y="0"
     inkscape:window-maximized="1">
    <sodipodi:guide
       position="32,0"
       orientation="1,0"
       id="guide4485"
       inkscape:locked="false"
       inkscape:label=""
       inkscape:color="rgb(0,0,255)" />
    <sodipodi:guide
       position="0,224"
       orientation="0,1"
       id="guide4487"
       inkscape:locked="false"
       inkscape:label=""
       inkscape:color="rgb(0,0,255)" />
    <sodipodi:guide
       position="0,32"
       orientation="0,1"
       id="guide4489"
       inkscape:locked="false"
       inkscape:label=""
       inkscape:color="rgb(0,0,255)" />
    <sodipodi:guide
       position="224,0"
       orientation="1,0"
       id="guide4491"
       inkscape:locked="false"
       inkscape:label=""
       inkscape:color="rgb(0,0,255)" />
  </sodipodi:namedview>
  <metadata
     id="metadata5">
    <rdf:RDF>
      <cc:Work
         rdf:about="">
        <dc:format>image/svg+xml</dc:format>
        <dc:type
           rdf:resource="http://purl.org/dc/dcmitype/StillImage" />
        <dc:title></dc:title>
      </cc:Work>
    </rdf:RDF>
  </metadata>
  <g
     inkscape:label="Layer 1"
     inkscape:groupmode="layer"
     id="layer1"
     transform="translate(0,-76.3)">
    <path
       inkscape:connector-curvature="0"
       style="fill:#3ab6a9;stroke-width:1.06666672"
       d="m 194.98876,145.63892 c -11.51179,0 -22.65616,3.30658 -32.57589,8.93999 -9.67479,5.51096 -18.12492,12.98137 -25.59534,21.18658 -2.93917,3.18411 -5.75588,6.61315 -8.57261,10.0422 -2.69424,3.30657 -5.14355,6.7356 -7.71533,10.16464 -1.22465,1.71452 -2.57178,3.55151 -3.79643,5.26603 -2.57178,3.55151 -5.14356,6.98055 -7.96028,10.16466 -2.69424,2.93917 -5.51096,5.75589 -8.32767,8.57261 -7.103007,6.98054 -14.695882,13.47122 -23.146018,18.85971 -6.613151,4.16384 -14.450957,8.2052 -22.533697,8.2052 -21.676435,0 -41.026022,-17.14519 -41.026022,-43.2304 0,-26.0852 18.614792,-40.29123 41.026022,-40.29123 12.981368,0 24.370683,5.51096 35.515065,15.06327 l -6.000821,6.1233 14.573414,3.67398 14.573427,3.67397 -4.04137,-14.45096 -4.04137,-14.45096 -6.490687,6.73562 C 87.463848,159.72247 73.380288,151.51728 55.622756,151.51728 c -29.024381,0 -52.9051989,20.94164 -52.9051989,52.90519 0,30.61644 23.8808179,52.9052 50.7008149,52.9052 11.144383,0 21.921368,-3.30658 31.35123,-8.94001 8.572601,-5.02109 16.043008,-11.63424 22.901088,-18.85971 2.32685,-2.44932 4.53123,-4.89864 6.73561,-7.34795 2.93918,-3.18411 5.63343,-6.36821 8.08274,-10.04219 1.10219,-1.59205 2.08192,-3.18412 3.18411,-4.77617 1.95945,-2.93917 3.79643,-5.87835 5.87835,-8.69506 3.91891,-5.26603 7.96028,-10.40959 12.24658,-15.30823 7.34794,-8.2052 15.67562,-15.79808 25.35041,-20.94164 7.71533,-4.16384 16.28794,-6.36822 25.10548,-6.36822 30.61643,0 47.76163,21.30903 47.76163,48.49644 0,25.35041 -16.41041,46.29205 -44.69999,46.29205 -16.16547,0 -30.37151,-4.40877 -45.31232,-17.26767 l 6.98055,-8.45013 -14.81836,-2.44933 -14.81836,-2.44931 5.26603,14.08357 5.26603,14.08354 5.87836,-7.103 c 14.45096,13.10383 30.24904,21.67643 50.82327,21.67643 34.2904,0 56.70163,-26.08519 56.70163,-58.90601 -0.12246,-34.53535 -23.26847,-58.41616 -58.29368,-58.41615 z"
       id="path5" />
  </g>
</svg>
